<svg id="svg" version="1.1" xmlns="http://www.w3.org/2000/svg" xmlns:xlink="http://www.w3.org/1999/xlink" width="400" height="398.92609862936274" viewBox="0, 0, 400,398.92609862936274"><g id="svgg"><path id="path0" d="M74.250 0.191 C 34.672 2.800,2.795 34.885,0.175 74.747 C -0.062 78.361,-0.067 327.227,0.170 330.667 C 2.297 361.479,23.416 387.523,53.210 396.074 C 56.983 397.157,60.308 397.801,65.917 398.535 C 68.033 398.811,314.785 398.940,319.417 398.667 C 359.385 396.309,392.406 366.498,398.898 326.914 C 400.015 320.101,399.917 336.109,399.917 161.083 L 399.917 3.417 399.502 2.604 C 398.956 1.535,397.830 0.561,396.779 0.249 C 395.824 -0.034,78.534 -0.092,74.250 0.191 M395.332 161.125 C 395.330 266.153,395.274 318.241,395.160 319.583 C 391.733 359.860,360.172 391.039,319.833 394.001 C 316.694 394.231,71.000 394.228,68.066 393.998 C 34.397 391.352,7.725 365.022,4.843 331.583 C 4.599 328.759,4.599 76.675,4.842 73.717 C 7.870 36.951,37.141 7.837,74.083 4.848 C 75.000 4.774,147.656 4.703,235.542 4.690 L 395.333 4.667 395.332 161.125 M197.218 253.583 C 197.219 254.133,197.250 254.338,197.287 254.039 C 197.325 253.739,197.324 253.289,197.286 253.039 C 197.248 252.788,197.217 253.033,197.218 253.583 M197.246 268.667 C 197.246 275.404,197.266 278.160,197.292 274.792 C 197.317 271.423,197.317 265.910,197.292 262.542 C 197.266 259.173,197.246 261.929,197.246 268.667 M217.126 278.541 C 216.629 279.023,215.856 279.737,215.409 280.129 L 214.595 280.841 214.922 281.450 C 215.103 281.785,215.398 282.248,215.578 282.477 C 215.759 282.707,215.923 283.007,215.943 283.143 C 215.963 283.280,216.096 283.457,216.240 283.537 C 216.383 283.618,216.500 283.784,216.500 283.907 C 216.500 284.030,216.612 284.174,216.750 284.227 C 217.098 284.360,217.063 284.172,216.614 283.497 C 215.585 281.948,215.335 281.178,215.748 280.835 C 215.885 280.722,215.960 280.571,215.917 280.500 C 215.873 280.429,215.986 280.332,216.167 280.285 C 216.349 280.237,216.628 279.971,216.788 279.693 C 216.956 279.400,217.342 279.083,217.706 278.940 C 218.200 278.746,218.333 278.604,218.333 278.273 C 218.333 277.569,218.070 277.627,217.126 278.541 M217.364 284.917 C 217.538 285.299,218.000 285.507,218.000 285.204 C 218.000 285.071,217.393 284.500,217.252 284.500 C 217.209 284.500,217.259 284.688,217.364 284.917 M197.220 285.833 C 197.220 286.429,197.250 286.673,197.287 286.375 C 197.324 286.077,197.324 285.590,197.287 285.292 C 197.250 284.994,197.220 285.237,197.220 285.833 M218.268 285.736 C 218.323 285.881,218.442 286.000,218.532 286.000 C 218.751 286.000,218.614 285.621,218.364 285.538 C 218.243 285.498,218.205 285.574,218.268 285.736 M197.239 292.000 C 197.239 294.246,197.262 295.165,197.291 294.042 C 197.320 292.919,197.320 291.081,197.291 289.958 C 197.262 288.835,197.239 289.754,197.239 292.000 M64.977 290.940 C 64.827 291.111,64.385 291.775,63.996 292.417 C 63.147 293.816,62.031 295.565,61.147 296.880 C 60.791 297.410,60.500 297.880,60.500 297.924 C 60.500 298.007,59.478 299.614,58.130 301.650 C 57.972 301.888,57.687 302.346,57.497 302.667 C 57.307 302.987,56.783 303.813,56.332 304.500 C 55.881 305.188,55.282 306.125,55.001 306.583 C 54.140 307.986,53.913 308.344,50.141 314.250 C 47.120 318.980,47.312 318.564,47.368 320.276 L 47.417 321.750 48.000 321.739 C 48.321 321.732,48.883 321.677,49.250 321.616 C 49.617 321.555,50.704 321.469,51.667 321.424 C 52.629 321.380,55.104 321.192,57.167 321.005 C 59.229 320.819,61.517 320.635,62.250 320.596 C 62.983 320.557,64.333 320.447,65.250 320.353 C 66.167 320.258,68.117 320.100,69.583 320.002 C 71.050 319.904,73.450 319.723,74.917 319.600 C 76.383 319.477,77.733 319.370,77.917 319.362 C 78.100 319.355,79.262 319.266,80.500 319.166 C 87.391 318.605,97.233 317.825,99.333 317.674 C 102.813 317.423,113.493 316.518,114.083 316.424 C 114.358 316.380,115.483 316.301,116.583 316.248 C 117.683 316.196,120.271 316.007,122.333 315.829 C 124.396 315.651,126.571 315.473,127.167 315.434 C 129.582 315.276,137.466 314.642,142.917 314.167 C 145.025 313.983,147.387 313.793,148.167 313.746 C 148.946 313.698,150.146 313.625,150.833 313.583 C 151.521 313.540,154.258 313.316,156.917 313.083 C 159.575 312.851,162.313 312.628,163.000 312.589 C 163.688 312.550,165.037 312.444,166.000 312.354 C 166.962 312.263,168.912 312.107,170.333 312.006 C 171.754 311.905,174.117 311.714,175.583 311.581 C 177.050 311.449,178.308 311.339,178.379 311.337 C 178.450 311.335,178.989 311.765,179.576 312.292 C 182.540 314.951,185.823 316.411,191.167 317.444 C 192.781 317.756,199.151 317.880,200.750 317.631 C 201.117 317.574,201.708 317.481,202.065 317.426 C 206.384 316.751,211.532 314.650,214.772 312.240 C 216.115 311.240,215.585 311.300,219.815 311.674 C 221.935 311.862,222.064 311.902,221.850 312.302 C 221.173 313.569,220.534 318.295,221.001 318.584 C 221.111 318.652,221.490 318.145,222.124 317.083 C 222.234 316.900,222.475 316.412,222.660 316.000 C 222.845 315.587,223.071 315.137,223.163 315.000 C 223.255 314.862,223.480 314.474,223.663 314.136 C 224.329 312.908,224.886 312.790,225.163 313.820 C 225.488 315.028,227.369 318.018,228.217 318.676 C 228.693 319.045,229.018 319.014,228.712 318.629 C 228.620 318.512,228.494 317.841,228.433 317.138 C 228.372 316.434,228.216 315.453,228.087 314.958 C 227.958 314.462,227.801 313.668,227.738 313.193 L 227.623 312.330 228.770 312.417 C 229.401 312.466,230.592 312.543,231.417 312.590 C 232.242 312.636,234.529 312.818,236.500 312.994 C 238.471 313.170,240.758 313.362,241.583 313.420 C 242.408 313.478,243.421 313.554,243.833 313.590 C 244.246 313.625,245.746 313.730,247.167 313.822 C 248.588 313.913,250.912 314.098,252.333 314.231 C 253.754 314.364,256.417 314.591,258.250 314.735 C 260.083 314.878,262.558 315.073,263.750 315.168 C 264.942 315.263,266.067 315.349,266.250 315.360 C 266.433 315.370,268.646 315.553,271.167 315.765 C 273.688 315.977,276.462 316.199,277.333 316.258 C 278.204 316.317,279.254 316.395,279.667 316.432 C 280.079 316.469,281.429 316.567,282.667 316.651 C 283.904 316.734,286.192 316.920,287.750 317.064 C 289.308 317.208,291.183 317.365,291.917 317.413 C 292.650 317.462,294.075 317.573,295.083 317.661 C 296.092 317.749,298.004 317.895,299.333 317.987 C 300.662 318.078,303.962 318.338,306.667 318.564 C 309.371 318.790,312.708 319.052,314.083 319.146 C 315.458 319.240,318.833 319.504,321.583 319.733 C 330.203 320.451,331.056 320.520,332.167 320.588 C 333.394 320.665,335.554 320.843,342.241 321.420 C 347.591 321.882,347.161 321.999,347.163 320.083 L 347.165 318.750 346.249 317.360 C 345.745 316.596,345.333 315.930,345.333 315.880 C 345.333 315.830,345.085 315.443,344.782 315.020 C 344.479 314.596,344.181 314.137,344.119 314.000 C 343.978 313.686,343.441 312.832,342.587 311.566 C 342.222 311.026,341.832 310.376,341.719 310.122 C 341.606 309.869,341.398 309.617,341.257 309.563 C 341.116 309.509,341.000 309.365,341.000 309.244 C 341.000 309.123,340.682 308.550,340.293 307.970 C 339.904 307.391,339.510 306.787,339.418 306.628 C 338.708 305.409,337.586 303.568,337.510 303.500 C 337.353 303.360,336.333 301.868,336.333 301.779 C 336.333 301.733,335.838 300.921,335.233 299.973 C 334.627 299.025,333.859 297.812,333.524 297.277 C 333.190 296.742,332.571 295.767,332.149 295.110 C 331.727 294.454,330.948 293.223,330.419 292.375 C 329.349 290.661,329.167 290.532,329.167 291.490 C 329.167 291.851,329.096 292.191,329.009 292.244 C 328.784 292.384,328.797 303.337,329.025 305.712 C 329.257 308.114,329.444 307.970,326.885 307.358 C 322.018 306.195,313.319 304.627,307.333 303.835 C 306.554 303.732,305.129 303.539,304.167 303.408 C 300.934 302.965,297.401 302.590,290.167 301.923 C 286.957 301.627,285.783 301.546,281.833 301.345 C 280.229 301.263,277.117 301.097,274.917 300.976 C 269.516 300.679,250.291 300.680,244.917 300.978 C 242.717 301.099,239.604 301.267,238.000 301.350 C 233.316 301.593,230.175 301.794,229.224 301.913 C 228.076 302.056,228.010 302.000,228.198 301.045 C 228.484 299.595,228.412 295.537,228.082 294.417 C 227.622 292.857,227.124 291.622,226.771 291.167 C 226.526 290.851,226.480 290.831,226.579 291.083 C 226.650 291.267,226.852 291.781,227.027 292.226 C 228.069 294.876,228.232 299.941,227.282 300.134 C 226.971 300.197,226.610 301.828,226.574 303.333 C 226.527 305.239,226.512 305.333,226.250 305.333 C 226.050 305.333,226.000 305.582,226.000 306.573 C 226.000 307.256,225.925 307.860,225.833 307.917 C 225.729 307.981,225.667 307.644,225.667 307.020 C 225.667 305.504,225.245 305.632,224.907 307.250 C 224.755 307.978,224.270 309.165,224.125 309.166 C 224.056 309.166,224.000 309.352,224.000 309.578 C 224.000 310.075,223.547 311.116,223.116 311.611 C 222.943 311.810,222.794 312.241,222.784 312.570 C 222.767 313.161,222.598 313.359,222.452 312.958 C 222.410 312.844,222.381 313.031,222.388 313.375 C 222.394 313.719,222.322 314.078,222.228 314.172 C 221.958 314.442,222.104 312.665,222.390 312.208 C 222.461 312.094,222.475 312.000,222.421 312.000 C 222.366 312.000,222.400 311.853,222.497 311.673 C 222.600 311.479,222.773 311.385,222.921 311.441 C 223.093 311.508,223.141 311.460,223.074 311.287 C 222.967 311.008,223.420 309.170,225.001 303.458 C 225.223 302.654,225.256 302.333,225.114 302.332 C 224.807 302.329,219.914 302.824,218.333 303.017 C 217.554 303.113,216.279 303.255,215.500 303.333 C 214.721 303.411,213.221 303.592,212.167 303.736 C 211.112 303.880,209.875 304.040,209.417 304.090 C 208.958 304.141,207.083 304.410,205.250 304.688 C 203.417 304.966,201.429 305.226,200.833 305.266 C 200.237 305.307,199.218 305.462,198.568 305.611 C 197.471 305.862,197.272 305.862,195.818 305.603 C 194.955 305.449,193.838 305.288,193.333 305.245 C 192.503 305.174,190.470 304.889,186.250 304.251 C 183.566 303.845,180.452 303.493,178.750 303.402 C 177.833 303.353,176.858 303.251,176.583 303.175 C 176.308 303.100,175.933 303.041,175.750 303.043 C 175.567 303.046,174.779 303.000,174.000 302.940 C 167.400 302.431,162.835 302.134,160.506 302.060 C 156.418 301.931,133.115 301.918,131.667 302.044 C 130.979 302.104,129.067 302.195,127.417 302.245 C 124.611 302.330,121.804 302.516,114.583 303.094 C 114.125 303.131,112.850 303.230,111.750 303.314 C 108.231 303.583,102.700 304.224,97.083 305.013 C 95.067 305.297,92.854 305.592,92.167 305.669 C 90.351 305.873,82.847 307.133,79.750 307.754 C 79.108 307.882,77.796 308.138,76.833 308.321 C 72.089 309.227,67.028 310.369,64.540 311.095 C 63.419 311.423,63.313 311.342,63.603 310.377 C 63.734 309.943,64.136 308.462,64.496 307.086 C 64.855 305.709,65.258 304.171,65.390 303.667 C 65.890 301.756,65.874 294.178,65.363 291.274 C 65.255 290.661,65.237 290.645,64.977 290.940 M197.111 298.196 C 196.993 298.645,197.157 298.949,197.352 298.643 C 197.539 298.346,197.540 297.833,197.353 297.833 C 197.272 297.833,197.163 297.996,197.111 298.196 M227.563 302.125 C 227.427 302.693,227.399 302.727,227.178 302.590 C 226.845 302.384,226.968 301.667,227.337 301.667 C 227.619 301.667,227.655 301.740,227.563 302.125 M171.250 303.333 C 171.460 303.424,171.491 303.477,171.333 303.477 C 171.196 303.477,170.933 303.412,170.750 303.333 C 170.540 303.243,170.509 303.190,170.667 303.190 C 170.804 303.190,171.067 303.255,171.250 303.333 M179.945 308.542 C 181.614 309.812,181.902 310.007,183.088 310.665 C 187.853 313.311,195.655 314.469,201.583 313.409 C 203.056 313.146,203.410 313.061,206.083 312.336 C 208.855 311.583,211.167 310.680,211.167 310.348 C 211.167 310.268,211.372 310.151,211.624 310.088 C 211.876 310.025,212.171 309.899,212.281 309.808 C 212.760 309.410,214.671 308.539,214.758 308.679 C 214.873 308.866,214.707 309.167,214.488 309.167 C 214.312 309.167,212.612 310.237,212.083 310.680 C 211.900 310.833,211.450 311.053,211.083 311.168 C 210.717 311.283,210.335 311.441,210.234 311.520 C 209.222 312.319,206.290 313.383,203.250 314.055 C 194.490 315.993,184.232 313.921,179.417 309.242 C 178.069 307.931,178.460 307.411,179.945 308.542 M215.203 308.364 C 214.948 308.618,214.760 308.431,214.902 308.063 C 214.985 307.845,215.057 307.824,215.205 307.972 C 215.354 308.120,215.353 308.214,215.203 308.364 M225.611 308.905 C 225.469 309.275,225.000 309.231,225.000 308.847 C 225.000 308.496,225.332 308.297,225.564 308.510 C 225.645 308.584,225.666 308.762,225.611 308.905 M227.167 312.500 C 227.167 312.689,227.056 312.833,226.911 312.833 C 226.707 312.833,226.691 312.766,226.833 312.500 C 226.931 312.317,227.047 312.167,227.089 312.167 C 227.132 312.167,227.167 312.317,227.167 312.500 M228.333 326.765 C 213.064 327.300,207.028 328.997,204.951 333.342 C 201.210 341.166,201.311 365.830,205.115 373.395 C 207.402 377.943,213.688 379.513,230.667 379.777 C 247.969 380.046,258.415 378.564,261.304 375.429 C 263.450 373.101,264.829 367.285,264.833 360.542 L 264.833 359.333 257.030 359.333 L 249.227 359.333 249.035 360.792 C 248.423 365.427,246.589 366.208,235.750 366.446 C 227.002 366.638,221.385 365.986,219.938 364.610 C 217.643 362.429,217.168 347.158,219.261 342.879 C 220.370 340.612,226.534 339.685,237.326 340.161 C 246.635 340.572,248.643 341.587,248.957 346.042 L 249.048 347.333 256.966 347.333 L 264.884 347.333 264.769 344.631 C 264.395 335.883,262.710 331.398,259.162 329.704 C 254.706 327.577,241.395 326.309,228.333 326.765 M72.570 326.996 C 59.392 327.565,55.100 329.077,52.691 334.000 C 50.312 338.862,50.440 348.415,52.950 353.399 C 55.435 358.334,60.367 359.467,80.982 359.838 C 94.853 360.088,95.834 360.381,95.833 364.286 C 95.832 367.450,95.078 367.599,79.833 367.450 C 66.608 367.320,66.000 367.102,66.000 362.492 L 66.000 361.667 58.142 361.667 L 50.284 361.667 50.378 364.292 C 50.733 374.133,53.502 377.902,61.364 379.242 C 67.197 380.236,89.926 380.180,98.156 379.151 C 108.398 377.871,111.380 374.517,111.406 364.250 C 111.431 354.368,109.092 350.388,102.244 348.658 C 97.570 347.478,89.592 346.848,79.158 346.837 C 69.280 346.827,66.744 345.940,66.753 342.500 C 66.762 339.343,67.148 339.261,81.500 339.384 C 94.377 339.494,94.374 339.493,94.774 343.708 L 94.881 344.833 102.716 344.833 L 110.551 344.833 110.445 342.792 C 109.947 333.296,106.324 328.424,99.083 327.517 C 95.042 327.010,79.376 326.702,72.570 326.996 M134.249 353.332 L 147.167 379.167 159.043 379.167 L 170.919 379.167 183.793 353.416 C 190.873 339.252,196.667 327.627,196.667 327.582 C 196.667 327.537,192.710 327.500,187.875 327.501 L 179.083 327.501 169.467 346.459 L 159.851 365.417 159.051 365.417 L 158.250 365.417 149.500 348.165 C 144.688 338.677,140.363 330.165,139.891 329.249 L 139.031 327.583 130.181 327.540 L 121.332 327.497 134.249 353.332 M294.472 333.291 C 292.910 336.477,289.042 344.371,285.876 350.833 C 282.710 357.296,278.921 365.021,277.457 368.000 C 275.992 370.979,274.168 374.711,273.404 376.293 L 272.014 379.169 281.187 379.126 L 290.360 379.083 292.747 374.833 L 295.133 370.583 310.782 370.541 L 326.430 370.498 328.840 374.827 L 331.250 379.156 340.375 379.161 C 345.394 379.164,349.500 379.114,349.500 379.049 C 349.500 378.934,347.720 375.290,332.093 343.417 L 324.330 327.583 310.822 327.541 L 297.313 327.498 294.472 333.291 M316.205 348.000 C 318.471 352.813,320.328 356.844,320.330 356.958 C 320.333 357.123,318.304 357.167,310.731 357.167 C 301.665 357.167,301.132 357.150,301.210 356.875 C 301.255 356.715,303.152 352.662,305.425 347.869 L 309.559 339.154 310.821 339.202 L 312.083 339.250 316.205 348.000 " stroke="none" fill="#2f2120" fill-rule="evenodd"></path><path id="path1" d="M152.260 20.613 C 160.624 34.861,165.212 45.785,167.402 56.667 C 172.253 80.777,163.851 103.767,147.460 111.235 C 129.470 119.432,105.766 108.489,95.014 87.025 C 92.105 81.218,87.667 67.917,87.667 65.006 C 87.667 64.749,87.559 64.286,87.428 63.977 L 87.190 63.417 86.774 64.351 C 83.281 72.202,84.487 85.990,89.949 100.667 C 93.178 109.343,96.836 115.738,102.818 123.167 C 117.275 141.118,125.606 154.656,129.649 166.764 C 136.157 186.256,137.180 210.816,132.158 226.988 C 131.572 228.874,131.537 228.821,133.092 228.363 C 148.118 223.942,163.202 209.572,166.469 196.564 C 167.811 191.223,167.629 185.876,165.941 181.083 C 165.618 180.167,165.232 178.742,165.083 177.917 C 164.934 177.092,164.402 174.579,163.902 172.333 C 163.108 168.772,162.332 164.531,161.426 158.810 C 160.598 153.576,159.793 145.984,159.502 140.667 C 158.148 115.898,165.690 93.836,177.864 86.948 C 179.680 85.921,179.690 85.785,177.519 91.278 C 174.448 99.047,173.560 101.962,172.194 108.750 C 169.286 123.205,170.572 133.861,176.448 143.979 C 178.301 147.170,180.988 150.604,181.332 150.220 C 181.578 149.946,181.833 148.492,181.833 147.368 C 181.833 146.098,181.755 145.940,180.305 144.295 C 172.927 135.923,174.502 121.543,183.583 114.355 L 184.250 113.828 184.344 110.872 C 184.450 107.536,184.273 99.592,184.003 95.583 C 182.458 72.660,180.712 63.742,174.884 49.000 C 169.636 35.727,159.907 23.202,152.413 20.071 L 151.788 19.810 152.260 20.613 M131.917 52.103 C 110.290 55.250,101.913 81.504,117.716 96.609 C 126.762 105.255,142.179 105.827,151.053 97.845 C 151.528 97.417,152.142 96.896,152.417 96.686 C 153.128 96.144,155.202 93.653,156.259 92.072 C 166.203 77.190,158.199 56.683,140.833 52.552 C 139.129 52.146,133.548 51.865,131.917 52.103 M309.508 121.093 C 298.540 123.471,286.583 137.094,279.160 155.667 C 266.265 187.933,264.055 210.682,272.262 226.667 C 273.811 229.685,277.665 234.369,280.022 236.100 C 281.013 236.827,280.939 236.884,281.070 235.292 C 281.802 226.377,285.049 218.025,291.907 207.417 C 296.227 200.734,304.276 193.885,316.000 186.915 C 323.260 182.598,326.050 180.308,329.861 175.538 C 334.823 169.326,337.422 163.825,337.781 158.777 C 337.914 156.897,337.913 156.898,335.949 159.883 C 328.971 170.487,320.000 175.939,309.583 175.905 C 291.094 175.846,284.500 155.537,296.741 136.350 C 299.378 132.215,302.980 128.349,309.333 122.833 C 311.767 120.720,311.669 120.831,311.079 120.847 C 310.806 120.854,310.100 120.965,309.508 121.093 M307.304 140.571 C 297.104 142.379,291.695 152.706,296.213 161.750 C 302.983 175.304,322.999 171.010,323.785 155.835 C 324.264 146.588,316.087 139.015,307.304 140.571 M328.992 291.621 C 328.946 292.008,328.972 292.261,329.050 292.184 C 329.127 292.106,329.165 291.789,329.133 291.480 C 329.076 290.931,329.073 290.934,328.992 291.621 M328.739 298.167 C 328.739 300.412,328.762 301.331,328.791 300.208 C 328.820 299.085,328.820 297.248,328.791 296.125 C 328.762 295.002,328.739 295.921,328.739 298.167 M139.417 301.782 C 142.376 301.888,153.497 301.909,153.137 301.808 C 152.924 301.749,149.450 301.708,145.417 301.717 C 141.383 301.727,138.683 301.756,139.417 301.782 M336.334 301.764 C 336.335 301.848,336.528 302.142,336.765 302.417 L 337.194 302.917 336.818 302.333 C 336.335 301.585,336.333 301.583,336.334 301.764 M157.917 302.010 C 158.100 302.083,158.737 302.143,159.333 302.142 C 160.700 302.140,160.461 302.049,158.833 301.952 C 158.124 301.910,157.728 301.935,157.917 302.010 M129.796 302.122 C 130.188 302.157,130.788 302.157,131.129 302.121 C 131.471 302.085,131.150 302.057,130.417 302.057 C 129.683 302.058,129.404 302.087,129.796 302.122 M167.461 302.454 C 167.761 302.491,168.211 302.490,168.461 302.452 C 168.712 302.414,168.467 302.384,167.917 302.385 C 167.367 302.386,167.162 302.417,167.461 302.454 M120.375 302.615 C 120.535 302.657,120.798 302.657,120.958 302.615 C 121.119 302.573,120.987 302.539,120.667 302.539 C 120.346 302.539,120.215 302.573,120.375 302.615 M169.460 302.618 C 169.668 302.658,169.968 302.656,170.127 302.615 C 170.286 302.573,170.117 302.540,169.750 302.542 C 169.383 302.544,169.253 302.578,169.460 302.618 M171.877 302.786 C 172.131 302.825,172.506 302.824,172.711 302.784 C 172.916 302.744,172.708 302.713,172.250 302.714 C 171.792 302.716,171.624 302.748,171.877 302.786 M114.833 303.000 C 114.257 303.121,114.256 303.123,114.750 303.142 C 115.025 303.153,115.362 303.089,115.500 303.000 C 115.778 302.821,115.685 302.821,114.833 303.000 M112.211 303.286 C 112.464 303.325,112.839 303.324,113.044 303.284 C 113.249 303.244,113.042 303.213,112.583 303.214 C 112.125 303.216,111.957 303.248,112.211 303.286 M170.750 303.333 C 170.933 303.412,171.196 303.477,171.333 303.477 C 171.491 303.477,171.460 303.424,171.250 303.333 C 171.067 303.255,170.804 303.190,170.667 303.190 C 170.509 303.190,170.540 303.243,170.750 303.333 M177.211 303.286 C 177.464 303.325,177.839 303.324,178.044 303.284 C 178.249 303.244,178.042 303.213,177.583 303.214 C 177.125 303.216,176.957 303.248,177.211 303.286 M103.627 304.118 C 103.834 304.158,104.134 304.156,104.294 304.115 C 104.453 304.073,104.283 304.040,103.917 304.042 C 103.550 304.044,103.420 304.078,103.627 304.118 M338.911 305.823 C 339.050 306.092,339.240 306.359,339.332 306.416 C 339.425 306.473,339.343 306.253,339.150 305.927 C 338.728 305.211,338.556 305.137,338.911 305.823 M92.375 305.615 C 92.535 305.657,92.798 305.657,92.958 305.615 C 93.119 305.573,92.987 305.539,92.667 305.539 C 92.346 305.539,92.215 305.573,92.375 305.615 M178.667 308.173 C 178.667 310.243,186.233 313.759,192.307 314.512 C 198.719 315.307,207.234 313.886,210.234 311.520 C 210.335 311.441,210.717 311.283,211.083 311.168 C 211.450 311.053,211.900 310.833,212.083 310.680 C 212.612 310.237,214.312 309.167,214.488 309.167 C 214.707 309.167,214.873 308.866,214.758 308.679 C 214.671 308.539,212.760 309.410,212.281 309.808 C 212.171 309.899,211.876 310.025,211.624 310.088 C 211.372 310.151,211.167 310.268,211.167 310.348 C 211.167 310.680,208.855 311.583,206.083 312.336 C 203.410 313.061,203.056 313.146,201.583 313.409 C 195.655 314.469,187.853 313.311,183.088 310.665 C 181.902 310.007,181.614 309.812,179.945 308.542 C 178.902 307.748,178.667 307.680,178.667 308.173 M214.902 308.063 C 214.760 308.431,214.948 308.618,215.203 308.364 C 215.353 308.214,215.354 308.120,215.205 307.972 C 215.057 307.824,214.985 307.845,214.902 308.063 M179.666 308.972 C 179.563 309.007,179.374 308.896,179.245 308.726 C 178.858 308.215,178.970 308.081,179.427 308.509 C 179.668 308.736,179.772 308.937,179.666 308.972 M341.000 309.232 C 341.000 309.360,341.114 309.508,341.254 309.562 C 341.461 309.641,341.475 309.598,341.331 309.330 C 341.125 308.943,341.000 308.907,341.000 309.232 M181.255 309.908 C 181.904 310.179,182.036 310.493,181.455 310.381 C 181.014 310.297,180.148 309.676,180.464 309.670 C 180.581 309.668,180.937 309.775,181.255 309.908 M183.405 311.352 C 183.269 311.572,183.048 311.531,182.947 311.269 C 182.885 311.107,182.954 311.063,183.177 311.121 C 183.353 311.167,183.455 311.271,183.405 311.352 M166.792 312.284 C 166.998 312.324,167.335 312.324,167.542 312.284 C 167.748 312.245,167.579 312.212,167.167 312.212 C 166.754 312.212,166.585 312.245,166.792 312.284 M164.877 312.453 C 165.131 312.491,165.506 312.490,165.711 312.451 C 165.916 312.411,165.708 312.380,165.250 312.381 C 164.792 312.382,164.624 312.415,164.877 312.453 M149.875 313.615 C 150.035 313.657,150.298 313.657,150.458 313.615 C 150.619 313.573,150.487 313.539,150.167 313.539 C 149.846 313.539,149.715 313.573,149.875 313.615 M131.292 315.118 C 131.498 315.157,131.835 315.157,132.042 315.118 C 132.248 315.078,132.079 315.045,131.667 315.045 C 131.254 315.045,131.085 315.078,131.292 315.118 M114.458 316.451 C 114.665 316.491,115.002 316.491,115.208 316.451 C 115.415 316.411,115.246 316.379,114.833 316.379 C 114.421 316.379,114.252 316.411,114.458 316.451 M112.877 316.620 C 113.131 316.658,113.506 316.657,113.711 316.617 C 113.916 316.578,113.708 316.546,113.250 316.548 C 112.792 316.549,112.624 316.581,112.877 316.620 M66.044 320.286 C 66.297 320.325,66.672 320.324,66.877 320.284 C 67.082 320.244,66.875 320.213,66.417 320.214 C 65.958 320.216,65.791 320.248,66.044 320.286 M327.625 320.284 C 327.831 320.324,328.169 320.324,328.375 320.284 C 328.581 320.245,328.412 320.212,328.000 320.212 C 327.587 320.212,327.419 320.245,327.625 320.284 M49.708 321.615 C 49.869 321.657,50.131 321.657,50.292 321.615 C 50.452 321.573,50.321 321.539,50.000 321.539 C 49.679 321.539,49.548 321.573,49.708 321.615 " stroke="none" fill="#d61640" fill-rule="evenodd"></path><path id="path2" d="M239.896 18.921 C 237.257 20.297,233.257 23.859,229.365 28.301 C 220.802 38.073,214.092 54.942,210.677 75.280 C 209.433 82.691,208.975 88.515,208.666 100.833 C 208.350 113.426,208.375 113.819,209.544 114.593 C 214.446 117.837,217.836 125.964,217.169 132.875 C 216.714 137.592,215.374 140.888,212.512 144.326 C 211.064 146.065,210.833 146.541,210.834 147.775 C 210.835 148.688,211.402 152.457,211.562 152.617 C 212.066 153.121,217.318 148.633,219.789 145.587 C 226.111 137.793,229.895 125.350,229.429 113.889 C 229.365 112.316,229.382 111.156,229.471 111.101 C 229.871 110.854,232.534 114.171,233.619 116.268 C 237.147 123.088,236.797 138.238,232.836 150.167 C 231.087 155.437,230.204 157.285,225.000 166.583 C 217.920 179.234,217.544 180.261,218.728 183.750 C 222.526 194.943,230.076 208.058,237.212 215.859 C 243.385 222.608,255.192 230.018,261.458 231.076 C 262.324 231.222,262.327 231.376,261.409 228.660 C 257.267 216.405,257.331 198.699,261.591 177.566 C 263.140 169.883,266.662 160.612,270.798 153.333 C 276.217 143.794,282.063 135.313,290.152 125.256 C 298.087 115.388,300.681 111.069,304.418 101.500 C 309.945 87.345,311.573 70.330,308.043 63.612 L 307.425 62.437 307.208 63.177 C 307.089 63.584,306.763 65.154,306.483 66.667 C 305.859 70.042,305.609 71.135,305.060 72.886 C 299.382 90.986,290.090 103.144,276.993 109.612 C 249.593 123.143,225.240 105.115,224.384 70.667 C 224.067 57.916,227.095 45.946,234.246 31.678 C 235.461 29.253,236.374 27.582,240.441 20.333 C 241.704 18.082,241.671 17.996,239.896 18.921 M256.083 50.433 C 236.314 52.427,226.024 75.480,237.346 92.412 C 243.871 102.171,255.387 105.962,266.990 102.170 C 280.473 97.764,287.987 82.220,283.306 68.417 C 279.624 57.561,267.146 49.318,256.083 50.433 M218.299 278.172 C 218.366 278.630,218.312 278.702,217.725 278.932 C 217.344 279.082,216.959 279.394,216.788 279.693 C 216.628 279.971,216.349 280.237,216.167 280.285 C 215.986 280.332,215.873 280.429,215.917 280.500 C 215.960 280.571,215.885 280.722,215.748 280.835 C 215.335 281.178,215.585 281.948,216.614 283.497 C 217.063 284.172,217.098 284.360,216.750 284.227 C 216.612 284.174,216.500 284.030,216.500 283.907 C 216.500 283.784,216.383 283.618,216.240 283.537 C 216.096 283.457,215.961 283.270,215.939 283.121 C 215.917 282.971,215.782 282.714,215.638 282.550 C 215.494 282.385,215.285 282.075,215.175 281.861 C 215.064 281.647,214.930 281.514,214.878 281.566 C 214.826 281.618,214.982 281.947,215.225 282.298 C 215.468 282.648,215.667 283.055,215.667 283.201 C 215.667 283.348,216.510 284.326,217.542 285.376 C 224.509 292.465,225.899 294.737,225.571 298.500 C 225.495 299.371,225.430 300.433,225.426 300.860 C 225.422 301.288,225.377 301.571,225.327 301.490 C 225.277 301.409,225.152 301.566,225.049 301.838 C 224.899 302.235,224.907 302.333,225.087 302.333 C 225.267 302.333,225.250 302.557,225.001 303.458 C 223.420 309.170,222.967 311.008,223.074 311.287 C 223.141 311.460,223.093 311.508,222.921 311.441 C 222.701 311.357,222.398 311.675,222.350 312.042 C 222.341 312.110,222.328 312.185,222.321 312.208 C 222.079 312.997,222.014 314.386,222.228 314.172 C 222.322 314.078,222.394 313.719,222.388 313.375 C 222.381 313.031,222.410 312.844,222.452 312.958 C 222.598 313.359,222.767 313.161,222.784 312.570 C 222.794 312.241,222.943 311.810,223.116 311.611 C 223.547 311.116,224.000 310.075,224.000 309.578 C 224.000 309.352,224.056 309.166,224.125 309.166 C 224.270 309.165,224.755 307.978,224.907 307.250 C 225.245 305.632,225.667 305.504,225.667 307.020 C 225.667 307.644,225.729 307.981,225.833 307.917 C 225.925 307.860,226.000 307.256,226.000 306.573 C 226.000 305.582,226.050 305.333,226.250 305.333 C 226.512 305.333,226.527 305.239,226.574 303.333 C 226.610 301.828,226.971 300.197,227.282 300.134 C 228.232 299.941,228.069 294.876,227.027 292.226 C 226.852 291.781,226.650 291.267,226.579 291.083 C 226.480 290.831,226.526 290.851,226.771 291.167 C 227.094 291.584,227.555 292.689,228.056 294.250 C 228.250 294.853,228.297 294.922,228.229 294.500 C 227.888 292.404,226.366 289.548,223.706 286.017 C 222.905 284.953,222.101 283.802,221.920 283.457 C 221.738 283.113,221.457 282.789,221.295 282.738 C 221.133 282.686,221.000 282.530,221.000 282.390 C 221.000 282.127,220.509 281.408,219.899 280.779 C 219.706 280.580,219.423 280.173,219.270 279.875 C 218.948 279.250,218.763 279.162,218.916 279.708 C 218.990 279.968,218.974 280.014,218.866 279.858 C 218.780 279.734,218.701 279.260,218.691 278.805 C 218.672 277.965,218.583 277.667,218.352 277.667 C 218.282 277.667,218.258 277.894,218.299 278.172 M216.167 279.173 C 215.387 279.902,214.827 280.498,214.921 280.499 C 215.016 280.499,215.208 280.369,215.348 280.208 C 215.489 280.048,216.026 279.552,216.542 279.105 C 217.283 278.464,217.859 277.789,217.620 277.841 C 217.600 277.846,216.946 278.445,216.167 279.173 M217.665 284.787 C 218.052 285.119,218.096 285.333,217.777 285.333 C 217.654 285.333,217.468 285.146,217.364 284.917 C 217.140 284.426,217.208 284.396,217.665 284.787 M218.628 285.802 C 218.728 286.102,218.384 286.039,218.268 285.736 C 218.205 285.574,218.243 285.498,218.364 285.538 C 218.473 285.574,218.592 285.693,218.628 285.802 M228.404 297.534 C 228.411 298.240,228.468 298.690,228.530 298.534 C 228.676 298.167,228.667 297.199,228.512 296.667 C 228.438 296.412,228.396 296.748,228.404 297.534 M227.000 302.073 C 227.000 302.822,227.387 302.857,227.563 302.125 C 227.655 301.740,227.619 301.667,227.337 301.667 C 227.091 301.667,227.000 301.776,227.000 302.073 M225.208 308.451 C 224.910 308.561,224.950 309.167,225.255 309.167 C 225.557 309.167,225.775 308.703,225.564 308.510 C 225.483 308.436,225.323 308.409,225.208 308.451 M226.833 312.500 C 226.691 312.766,226.707 312.833,226.911 312.833 C 227.056 312.833,227.167 312.689,227.167 312.500 C 227.167 312.317,227.132 312.167,227.089 312.167 C 227.047 312.167,226.931 312.317,226.833 312.500 M227.778 313.333 C 227.831 313.837,227.936 314.400,228.011 314.583 C 228.226 315.115,228.178 314.526,227.916 313.417 L 227.680 312.417 227.778 313.333 M221.333 313.333 C 221.230 313.719,221.177 314.066,221.217 314.106 C 221.257 314.146,221.371 313.860,221.470 313.470 C 221.569 313.080,221.621 312.732,221.586 312.697 C 221.551 312.662,221.437 312.948,221.333 313.333 M224.852 313.458 C 225.041 314.024,225.167 314.154,225.167 313.782 C 225.167 313.662,225.055 313.418,224.919 313.240 C 224.692 312.944,224.687 312.963,224.852 313.458 M224.135 313.458 C 223.841 313.800,223.621 314.167,223.709 314.167 C 223.743 314.167,223.937 313.942,224.140 313.667 C 224.542 313.123,224.538 312.988,224.135 313.458 M225.583 315.167 C 225.726 315.442,225.879 315.667,225.925 315.667 C 225.971 315.667,225.892 315.442,225.750 315.167 C 225.608 314.892,225.454 314.667,225.408 314.667 C 225.362 314.667,225.441 314.892,225.583 315.167 M220.772 315.375 C 220.403 316.749,220.741 319.089,221.247 318.669 C 221.618 318.362,222.398 317.009,222.275 316.886 C 222.221 316.832,222.100 316.986,222.008 317.229 C 221.776 317.840,221.142 318.671,220.983 318.573 C 220.911 318.528,220.870 317.706,220.893 316.746 C 220.937 314.886,220.928 314.790,220.772 315.375 M222.694 315.924 C 222.414 316.537,222.468 316.667,222.770 316.110 C 222.911 315.850,222.995 315.606,222.957 315.568 C 222.919 315.530,222.800 315.690,222.694 315.924 M226.000 315.932 C 226.000 316.477,228.292 319.167,228.756 319.167 C 228.834 319.167,228.640 318.977,228.324 318.746 C 227.714 318.298,227.063 317.481,226.503 316.458 C 226.187 315.882,226.000 315.687,226.000 315.932 M228.519 317.698 C 228.509 318.129,228.559 318.517,228.632 318.562 C 228.704 318.607,228.738 318.367,228.706 318.030 C 228.608 316.999,228.540 316.878,228.519 317.698 " stroke="none" fill="#04aae3" fill-rule="evenodd"></path><path id="path3" d="M0.023 37.958 C 0.037 59.593,0.106 75.128,0.185 74.083 C 3.163 34.518,34.640 3.017,74.026 0.184 C 75.085 0.107,59.227 0.037,37.958 0.024 L 0.000 0.000 0.023 37.958 M396.995 0.289 C 397.975 0.635,399.365 2.025,399.711 3.005 L 399.974 3.750 399.987 1.875 L 400.000 0.000 398.125 0.013 L 396.250 0.026 396.995 0.289 M75.583 4.781 C 39.175 6.649,9.594 34.699,5.047 71.667 C 4.579 75.475,4.585 329.986,5.054 333.583 C 9.404 366.985,35.510 391.779,68.667 394.000 C 73.693 394.337,319.667 394.134,322.500 393.791 C 361.361 389.084,389.791 361.080,394.876 322.500 L 395.238 319.750 395.287 162.208 L 395.336 4.667 235.960 4.698 C 148.303 4.716,76.133 4.753,75.583 4.781 M241.332 18.542 C 241.331 18.656,240.930 19.462,240.441 20.333 C 236.374 27.582,235.461 29.253,234.246 31.678 C 227.095 45.946,224.067 57.916,224.384 70.667 C 225.240 105.115,249.593 123.143,276.993 109.612 C 290.090 103.144,299.382 90.986,305.060 72.886 C 305.609 71.135,305.859 70.042,306.483 66.667 C 306.763 65.154,307.089 63.584,307.208 63.177 L 307.425 62.437 308.043 63.612 C 311.573 70.330,309.945 87.345,304.418 101.500 C 300.681 111.069,298.087 115.388,290.152 125.256 C 282.063 135.313,276.217 143.794,270.798 153.333 C 266.662 160.612,263.140 169.883,261.591 177.566 C 257.331 198.699,257.267 216.405,261.409 228.660 C 262.327 231.376,262.324 231.222,261.458 231.076 C 255.192 230.018,243.385 222.608,237.212 215.859 C 230.076 208.058,222.526 194.943,218.728 183.750 C 217.544 180.261,217.920 179.234,225.000 166.583 C 230.204 157.285,231.087 155.437,232.836 150.167 C 236.797 138.238,237.147 123.088,233.619 116.268 C 232.534 114.171,229.871 110.854,229.471 111.101 C 229.382 111.156,229.365 112.316,229.429 113.889 C 229.895 125.350,226.111 137.793,219.789 145.587 C 217.318 148.633,212.066 153.121,211.562 152.617 C 211.402 152.457,210.835 148.688,210.834 147.775 C 210.833 146.541,211.064 146.065,212.512 144.326 C 215.374 140.888,216.714 137.592,217.169 132.875 C 217.836 125.964,214.446 117.837,209.544 114.593 C 208.375 113.819,208.350 113.426,208.666 100.833 C 209.084 84.148,210.105 75.578,213.103 63.583 C 217.934 44.252,224.914 31.277,235.333 22.260 C 238.414 19.594,241.338 17.781,241.332 18.542 M152.881 20.274 C 159.492 23.621,167.385 32.957,172.409 43.373 C 178.484 55.969,182.119 70.192,183.325 86.083 C 184.260 98.406,184.557 105.193,184.389 110.417 L 184.283 113.750 183.600 114.330 C 174.356 122.183,172.882 135.697,180.333 144.291 C 180.929 144.978,181.520 145.682,181.646 145.855 C 182.068 146.432,181.800 149.961,181.312 150.263 C 180.880 150.530,178.234 147.080,176.337 143.776 C 169.754 132.310,168.994 120.469,173.670 102.250 C 174.459 99.178,174.845 98.072,177.350 91.717 C 179.715 85.715,179.675 85.950,178.208 86.751 C 165.190 93.861,157.501 117.815,159.725 144.333 C 160.454 153.024,162.152 164.522,163.750 171.583 C 164.165 173.417,164.723 176.042,164.989 177.417 C 165.256 178.792,165.624 180.264,165.807 180.690 C 168.155 186.154,167.795 194.501,164.922 201.230 C 161.218 209.900,151.175 219.952,141.194 224.978 C 137.855 226.660,132.437 228.833,131.585 228.833 C 131.549 228.833,131.708 228.290,131.937 227.625 C 137.397 211.826,136.057 183.858,128.923 164.685 C 124.630 153.145,115.843 139.180,102.768 123.115 C 88.217 105.235,80.520 76.428,86.954 63.929 L 87.205 63.441 87.436 63.990 C 87.563 64.291,87.667 64.740,87.667 64.986 C 87.667 65.966,89.482 72.740,90.842 76.833 C 96.101 92.662,104.859 103.489,117.381 109.642 C 134.598 118.102,150.865 114.141,161.093 99.000 C 164.693 93.672,167.729 84.524,168.424 76.917 C 170.066 58.938,165.622 43.481,152.216 20.542 C 151.729 19.708,151.748 19.700,152.881 20.274 M262.282 50.759 C 277.581 53.417,287.470 68.290,283.913 83.288 C 278.229 107.247,245.980 111.101,235.413 89.084 C 226.070 69.619,241.789 47.199,262.282 50.759 M140.333 52.411 C 158.044 56.355,166.341 77.021,156.256 92.072 C 149.740 101.796,138.132 105.842,127.073 102.243 C 111.562 97.195,104.684 78.040,113.372 64.083 C 117.446 57.537,123.513 53.600,131.833 52.102 C 132.876 51.914,139.122 52.142,140.333 52.411 M172.190 98.346 C 168.171 110.811,167.173 120.973,169.010 130.750 C 173.322 153.706,189.851 165.071,208.167 157.675 C 221.017 152.485,230.373 137.950,231.766 121.016 C 232.074 117.267,233.500 125.104,233.500 130.547 C 233.500 141.967,230.405 152.029,223.003 164.667 C 218.114 173.016,213.061 184.827,211.188 192.289 C 209.682 198.289,209.248 202.636,209.256 211.667 C 209.268 224.182,210.257 230.681,213.478 239.383 L 214.785 242.917 214.370 242.972 C 211.891 243.300,205.274 240.472,199.536 236.632 C 197.406 235.207,197.376 235.194,197.438 235.785 C 197.465 236.041,197.530 250.987,197.583 269.000 C 197.683 303.139,197.701 304.463,198.093 304.767 C 198.440 305.036,201.326 305.199,202.274 305.003 C 202.719 304.911,203.721 304.763,204.500 304.674 C 205.279 304.586,207.192 304.324,208.750 304.092 C 211.322 303.709,213.443 303.437,215.250 303.260 C 216.190 303.168,223.439 302.349,224.282 302.240 C 225.103 302.133,225.203 301.923,225.488 299.682 C 226.020 295.503,225.015 293.243,220.500 288.476 C 220.179 288.137,219.543 287.435,219.087 286.915 C 217.840 285.497,218.020 285.495,215.219 286.941 C 213.861 287.642,212.470 288.392,212.128 288.608 C 211.786 288.823,211.474 289.000,211.435 289.000 C 211.396 289.000,210.560 289.487,209.577 290.083 C 208.594 290.679,207.737 291.167,207.671 291.167 C 207.605 291.167,207.416 291.317,207.250 291.500 C 207.084 291.683,206.879 291.833,206.794 291.833 C 206.643 291.833,201.999 295.104,201.833 295.327 C 201.624 295.609,199.947 296.836,199.873 296.762 C 199.659 296.548,202.421 293.729,205.583 290.933 C 206.592 290.041,207.604 289.143,207.833 288.937 C 208.197 288.611,209.038 287.965,211.483 286.134 C 211.813 285.887,212.887 285.137,213.869 284.467 C 215.846 283.120,215.839 283.131,215.250 282.333 C 215.021 282.023,214.833 281.671,214.833 281.551 C 214.833 281.258,214.580 281.277,214.036 281.611 L 213.583 281.889 214.000 281.419 C 214.953 280.343,217.146 278.261,218.000 277.621 C 218.504 277.243,219.742 276.250,220.750 275.414 C 225.333 271.616,236.022 264.000,236.770 264.000 C 236.836 264.000,237.009 263.898,237.154 263.774 C 237.298 263.649,237.904 263.283,238.500 262.960 C 239.096 262.637,240.446 261.894,241.500 261.308 C 242.554 260.722,244.579 259.666,246.000 258.961 C 248.297 257.821,249.096 257.444,251.333 256.445 C 261.950 251.705,274.333 248.500,286.917 247.233 C 290.703 246.852,298.149 246.804,298.436 247.158 C 298.551 247.300,299.228 248.167,299.941 249.083 C 300.654 250.000,301.280 250.787,301.333 250.833 C 301.386 250.879,301.769 251.367,302.183 251.917 C 302.598 252.467,303.438 253.566,304.052 254.359 C 304.665 255.153,305.167 255.853,305.167 255.916 C 305.167 256.031,304.813 256.010,301.250 255.685 C 295.251 255.137,288.133 255.000,283.583 255.345 C 277.244 255.826,275.609 256.003,272.083 256.588 C 270.617 256.831,269.042 257.092,268.583 257.167 C 267.698 257.312,265.293 257.831,263.500 258.264 C 262.904 258.408,262.117 258.596,261.750 258.681 C 259.185 259.278,253.320 261.025,251.167 261.833 C 250.479 262.092,249.729 262.355,249.500 262.420 C 249.271 262.484,248.858 262.634,248.583 262.753 C 248.308 262.872,247.258 263.282,246.250 263.663 C 241.812 265.342,233.055 269.503,229.333 271.701 C 228.427 272.236,227.662 272.669,226.693 273.195 C 226.204 273.461,225.604 273.815,225.360 273.982 C 225.116 274.149,223.904 274.925,222.667 275.708 C 218.022 278.643,218.345 278.268,219.183 279.753 C 219.774 280.800,219.703 280.773,220.599 280.287 C 222.355 279.335,226.056 277.486,227.333 276.923 C 228.112 276.580,229.050 276.168,229.417 276.006 C 229.980 275.759,231.869 274.981,233.083 274.497 C 236.244 273.237,244.168 270.883,248.000 270.066 C 248.688 269.919,249.775 269.688,250.417 269.551 C 253.756 268.841,258.614 268.105,263.417 267.581 C 272.566 266.583,282.840 266.471,292.564 267.261 C 299.169 267.798,300.770 267.948,302.000 268.146 C 302.596 268.242,303.946 268.442,305.000 268.590 C 308.951 269.145,311.755 269.591,312.750 269.823 C 313.117 269.908,313.904 270.062,314.500 270.166 C 315.096 270.269,315.846 270.421,316.167 270.503 C 320.282 271.561,320.838 271.484,319.508 270.044 C 319.256 269.771,317.345 267.059,315.440 264.269 C 314.995 263.617,313.164 260.983,311.372 258.417 C 308.497 254.299,307.577 252.986,305.358 249.833 C 305.068 249.421,304.394 248.446,303.862 247.667 C 303.329 246.887,301.742 244.600,300.335 242.583 C 298.928 240.567,297.440 238.429,297.028 237.833 C 296.617 237.237,296.059 236.450,295.790 236.083 C 295.147 235.208,292.100 230.840,290.733 228.833 C 290.139 227.963,289.243 226.688,288.741 226.000 C 288.239 225.313,287.778 224.642,287.717 224.510 C 287.657 224.378,287.208 223.714,286.721 223.035 C 285.919 221.917,285.765 221.500,286.157 221.500 C 286.233 221.500,286.768 222.156,287.347 222.958 C 287.926 223.760,288.448 224.454,288.508 224.500 C 288.568 224.546,288.696 224.733,288.793 224.917 C 288.889 225.100,289.482 225.942,290.109 226.788 C 290.737 227.633,291.512 228.705,291.833 229.169 C 292.561 230.220,293.582 231.646,293.912 232.073 C 294.247 232.505,296.584 235.751,299.680 240.083 C 300.139 240.725,301.110 242.075,301.838 243.083 C 302.565 244.092,303.269 245.067,303.401 245.250 C 303.987 246.064,305.598 248.317,306.082 249.000 C 307.471 250.960,311.422 256.440,311.576 256.620 C 311.672 256.732,311.998 257.182,312.300 257.620 C 312.603 258.058,313.749 259.654,314.847 261.167 C 315.944 262.679,317.426 264.742,318.140 265.750 C 318.853 266.758,320.489 269.046,321.774 270.833 C 325.000 275.320,325.368 275.854,325.286 275.936 C 325.222 276.000,322.752 275.638,321.667 275.406 C 321.438 275.357,320.575 275.213,319.750 275.086 C 318.925 274.960,317.762 274.774,317.167 274.674 C 316.571 274.575,315.483 274.426,314.750 274.343 C 314.017 274.261,311.992 274.006,310.250 273.776 C 307.016 273.351,305.420 273.169,304.245 273.093 C 303.881 273.069,303.321 273.004,303.000 272.947 C 302.679 272.891,301.592 272.803,300.583 272.752 C 299.575 272.701,297.925 272.589,296.917 272.503 C 288.289 271.768,268.935 272.053,264.167 272.986 C 263.754 273.066,263.192 273.140,262.917 273.150 C 261.691 273.194,256.812 273.894,252.917 274.585 C 249.248 275.235,247.418 275.605,244.750 276.236 C 241.239 277.067,232.690 279.515,231.583 280.006 C 231.400 280.087,230.838 280.281,230.333 280.437 C 229.829 280.593,228.292 281.168,226.917 281.714 C 225.542 282.261,224.117 282.816,223.750 282.949 C 223.383 283.082,223.012 283.260,222.925 283.345 C 222.838 283.430,222.632 283.500,222.467 283.500 C 221.923 283.500,222.149 283.967,223.665 285.970 C 227.957 291.645,228.881 294.410,228.376 300.083 C 228.295 301.000,228.246 301.790,228.268 301.838 C 228.307 301.925,229.042 301.881,233.750 301.512 C 241.613 300.897,244.555 300.786,255.752 300.687 C 267.960 300.579,272.442 300.651,279.500 301.072 C 281.837 301.211,284.748 301.371,285.969 301.427 C 287.189 301.483,288.426 301.598,288.718 301.681 C 289.009 301.765,289.698 301.833,290.249 301.832 C 291.225 301.830,296.578 302.329,299.250 302.670 C 299.983 302.764,301.258 302.908,302.083 302.991 C 302.908 303.073,304.371 303.254,305.333 303.391 C 306.296 303.528,307.571 303.688,308.167 303.746 C 308.762 303.804,309.475 303.917,309.750 303.997 C 310.025 304.077,310.813 304.219,311.500 304.312 C 312.716 304.476,315.746 304.964,316.417 305.104 C 316.600 305.142,317.200 305.241,317.750 305.324 C 318.300 305.406,319.688 305.670,320.833 305.910 C 321.979 306.150,323.179 306.386,323.500 306.435 C 324.358 306.565,326.974 307.176,327.797 307.439 C 329.021 307.829,329.064 307.801,328.922 306.708 C 328.854 306.181,328.806 305.510,328.815 305.216 C 328.826 304.871,328.730 304.626,328.544 304.522 C 328.274 304.370,328.275 304.340,328.564 304.021 C 328.807 303.753,328.846 303.549,328.747 303.049 C 328.540 301.995,328.466 294.301,328.661 294.106 C 328.756 294.011,328.833 293.471,328.833 292.907 C 328.833 291.633,329.004 290.333,329.171 290.333 C 329.275 290.333,333.732 297.176,334.000 297.747 C 334.046 297.844,334.355 298.335,334.686 298.837 C 335.018 299.339,335.648 300.313,336.087 301.000 C 336.526 301.688,337.125 302.625,337.418 303.083 C 337.711 303.542,338.243 304.388,338.601 304.964 C 338.958 305.540,339.814 306.890,340.504 307.964 C 341.193 309.038,342.356 310.869,343.087 312.033 C 343.818 313.197,345.035 315.109,345.790 316.283 L 347.164 318.417 347.165 320.143 L 347.167 321.869 345.542 321.758 C 343.054 321.588,341.964 321.498,341.417 321.418 C 341.142 321.378,339.642 321.267,338.083 321.171 C 336.525 321.075,334.087 320.889,332.667 320.758 C 331.246 320.626,328.546 320.402,326.667 320.260 C 318.477 319.638,307.626 318.781,302.000 318.311 C 296.767 317.874,292.032 317.511,291.167 317.480 C 291.029 317.475,288.292 317.252,285.083 316.985 C 278.932 316.472,277.412 316.351,265.417 315.413 C 261.292 315.091,255.142 314.600,251.750 314.322 C 248.358 314.045,244.533 313.747,243.250 313.660 C 240.012 313.442,239.929 313.435,233.630 312.906 C 230.539 312.647,227.965 312.480,227.909 312.535 C 227.854 312.591,227.969 313.562,228.166 314.693 C 228.628 317.344,228.852 319.037,228.754 319.135 C 228.285 319.604,224.833 314.500,224.833 313.338 C 224.833 312.553,223.947 313.758,222.674 316.274 C 221.113 319.358,220.674 319.547,220.669 317.137 C 220.667 315.950,221.113 313.812,221.645 312.458 C 221.744 312.206,221.780 312.000,221.726 312.000 C 221.671 312.000,220.359 311.884,218.809 311.743 L 215.993 311.486 215.038 312.213 C 211.759 314.708,206.241 316.960,201.917 317.568 C 192.687 318.866,184.156 316.843,179.314 312.210 L 178.545 311.473 175.314 311.735 C 173.537 311.879,170.096 312.153,167.667 312.343 C 165.237 312.534,162.050 312.795,160.583 312.924 C 159.117 313.053,157.242 313.199,156.417 313.249 C 155.592 313.298,154.579 313.376,154.167 313.421 C 153.754 313.467,152.310 313.577,150.958 313.666 C 149.605 313.755,147.318 313.938,145.874 314.072 C 144.431 314.206,141.637 314.436,139.667 314.584 C 137.696 314.731,134.321 314.995,132.167 315.169 C 130.012 315.344,126.750 315.603,124.917 315.744 C 116.722 316.376,114.694 316.539,111.250 316.841 C 109.233 317.018,106.908 317.209,106.083 317.266 C 105.258 317.323,104.321 317.388,104.000 317.411 C 103.679 317.434,102.667 317.507,101.750 317.572 C 100.833 317.638,98.471 317.831,96.500 318.001 C 94.529 318.171,91.342 318.431,89.417 318.578 C 82.878 319.078,57.305 321.096,54.417 321.339 C 53.225 321.439,51.869 321.545,51.404 321.574 C 50.938 321.603,49.861 321.682,49.009 321.749 C 47.149 321.896,47.173 321.917,47.169 320.083 L 47.167 318.750 48.125 317.203 C 48.998 315.793,54.074 307.782,55.751 305.167 C 56.133 304.571,56.876 303.408,57.401 302.583 C 58.641 300.634,63.012 293.769,64.083 292.088 C 64.542 291.368,64.967 290.703,65.029 290.609 C 65.202 290.346,65.663 290.808,65.644 291.226 C 65.611 291.996,65.890 295.849,65.984 295.907 C 66.240 296.065,65.812 303.746,65.517 304.279 C 65.424 304.446,65.164 305.258,64.939 306.083 C 64.714 306.908,64.328 308.319,64.081 309.219 C 63.565 311.102,63.578 311.141,64.630 310.846 C 65.522 310.596,66.000 310.487,68.000 310.076 C 68.779 309.916,69.653 309.683,69.942 309.559 C 70.231 309.435,70.656 309.333,70.887 309.333 C 71.118 309.333,71.744 309.228,72.278 309.100 C 74.319 308.611,77.640 307.922,80.000 307.500 C 83.471 306.880,85.883 306.469,87.833 306.167 C 89.071 305.976,90.421 305.746,90.833 305.657 C 91.246 305.568,92.183 305.426,92.917 305.341 C 93.650 305.256,94.513 305.145,94.833 305.093 C 95.154 305.041,96.279 304.882,97.333 304.738 C 98.388 304.595,99.737 304.410,100.333 304.328 C 100.929 304.245,101.795 304.175,102.258 304.172 C 102.721 304.169,103.171 304.098,103.258 304.014 C 103.345 303.930,104.167 303.817,105.083 303.761 C 106.000 303.706,107.725 303.542,108.917 303.396 C 110.108 303.251,111.983 303.069,113.083 302.993 C 114.183 302.917,115.871 302.777,116.833 302.683 C 118.547 302.514,123.939 302.186,131.250 301.807 C 135.526 301.585,151.065 301.526,156.500 301.711 C 166.379 302.047,177.135 302.917,185.167 304.029 C 187.137 304.302,189.350 304.595,190.083 304.680 C 190.817 304.765,191.770 304.908,192.202 304.997 C 192.715 305.104,193.287 305.104,193.850 304.997 C 194.324 304.907,195.144 304.833,195.672 304.833 C 196.290 304.833,196.656 304.759,196.703 304.625 C 196.796 304.354,196.916 300.660,196.867 299.583 C 196.846 299.125,196.840 284.382,196.854 266.821 L 196.878 234.891 195.314 233.378 C 187.739 226.048,184.190 221.191,179.510 211.750 C 175.305 203.268,173.521 198.671,170.585 188.750 C 168.067 180.245,164.647 164.218,163.348 154.833 C 159.835 129.459,163.296 106.979,172.508 95.341 C 173.516 94.068,173.490 94.314,172.190 98.346 M200.913 113.069 C 218.660 117.667,219.334 143.053,201.856 148.567 C 185.148 153.837,171.496 134.616,181.684 120.167 C 185.944 114.124,193.798 111.226,200.913 113.069 M311.245 121.146 C 311.065 121.317,310.204 122.076,309.333 122.833 C 302.980 128.349,299.378 132.215,296.741 136.350 C 284.500 155.537,291.094 175.846,309.583 175.905 C 320.000 175.939,328.971 170.487,335.949 159.883 C 337.913 156.898,337.914 156.897,337.781 158.777 C 337.422 163.825,334.823 169.326,329.861 175.538 C 326.050 180.308,323.260 182.598,316.000 186.915 C 304.276 193.885,296.227 200.734,291.907 207.417 C 285.049 218.025,281.802 226.377,281.070 235.292 C 280.939 236.884,281.013 236.827,280.022 236.100 C 277.665 234.369,273.811 229.685,272.262 226.667 C 264.055 210.682,266.265 187.933,279.160 155.667 C 285.397 140.061,295.319 127.296,304.750 122.744 C 307.592 121.372,312.200 120.238,311.245 121.146 M92.083 129.363 C 95.983 130.644,101.813 135.136,105.915 140.020 C 120.208 157.040,130.272 198.677,125.398 220.631 C 123.620 228.641,117.899 237.643,112.837 240.399 L 112.000 240.854 112.000 238.599 C 112.000 232.376,110.113 225.990,105.494 216.583 C 100.697 206.812,93.828 199.587,81.693 191.546 C 77.506 188.772,75.632 187.273,73.165 184.729 C 66.640 177.999,61.415 167.368,62.383 162.792 C 62.579 161.863,62.700 161.974,64.009 164.289 C 70.407 175.603,79.765 181.809,89.895 181.456 C 108.364 180.812,113.652 158.350,99.702 139.798 C 98.723 138.496,94.874 134.292,90.603 129.859 L 89.583 128.801 90.333 128.918 C 90.746 128.982,91.533 129.182,92.083 129.363 M313.046 140.821 C 325.330 143.990,327.706 161.213,316.770 167.809 C 304.804 175.026,290.619 162.804,295.687 149.643 C 298.241 143.011,306.084 139.025,313.046 140.821 M93.660 148.161 C 97.361 149.232,100.710 151.972,102.299 155.230 C 104.134 158.993,104.104 164.482,102.228 168.218 C 97.361 177.911,82.270 177.971,77.408 168.317 C 71.859 157.297,81.955 144.775,93.660 148.161 M121.907 266.484 C 122.004 266.560,123.096 266.665,124.333 266.717 C 126.188 266.795,129.962 267.180,132.833 267.585 C 133.154 267.630,134.204 267.777,135.167 267.911 C 137.909 268.293,141.943 269.029,144.250 269.567 C 144.800 269.696,145.925 269.951,146.750 270.134 C 147.575 270.318,148.662 270.583,149.167 270.723 C 149.671 270.864,150.533 271.099,151.083 271.247 C 158.515 273.245,168.420 277.204,173.667 280.275 C 175.261 281.208,175.600 281.402,176.083 281.662 C 176.358 281.809,176.883 282.123,177.250 282.359 C 177.617 282.595,178.704 283.296,179.667 283.916 C 182.586 285.797,185.918 288.345,189.333 291.305 C 191.617 293.284,195.966 297.833,195.574 297.833 C 195.508 297.833,195.370 297.728,195.268 297.598 C 194.549 296.685,187.307 291.576,183.163 289.058 C 180.365 287.358,171.840 282.833,171.435 282.833 C 171.383 282.833,170.720 282.543,169.962 282.188 C 169.204 281.834,168.171 281.376,167.667 281.171 C 167.162 280.966,166.337 280.626,165.833 280.415 C 165.329 280.204,164.092 279.718,163.083 279.336 C 162.075 278.954,161.100 278.574,160.917 278.492 C 160.185 278.164,154.449 276.333,152.333 275.753 C 151.096 275.414,149.596 274.995,149.000 274.823 C 148.404 274.650,147.054 274.318,146.000 274.084 C 144.946 273.850,143.783 273.587,143.417 273.500 C 141.033 272.929,133.675 271.719,131.667 271.567 C 131.071 271.522,130.475 271.448,130.343 271.402 C 130.210 271.356,129.648 271.282,129.093 271.237 C 128.538 271.192,127.333 271.086,126.417 271.000 C 119.982 270.401,108.969 270.358,103.000 270.908 C 101.396 271.056,99.708 271.209,99.250 271.247 C 97.120 271.425,94.828 271.673,93.917 271.824 C 93.367 271.915,92.579 272.035,92.167 272.090 C 91.401 272.193,88.253 272.720,86.750 272.996 C 82.660 273.749,81.202 274.041,80.917 274.165 C 80.733 274.245,80.208 274.358,79.750 274.416 C 79.292 274.474,78.542 274.626,78.083 274.754 C 77.625 274.882,76.612 275.141,75.833 275.329 C 75.054 275.516,74.235 275.719,74.014 275.778 C 73.448 275.931,73.482 275.868,75.998 272.064 L 78.191 268.750 80.220 268.390 C 81.337 268.193,82.813 267.985,83.500 267.930 C 84.188 267.875,85.087 267.760,85.500 267.676 C 87.544 267.258,96.136 266.552,101.833 266.334 C 105.900 266.179,121.668 266.296,121.907 266.484 M399.771 319.441 C 397.563 360.744,362.528 395.748,320.500 398.642 C 319.247 398.729,334.674 398.795,359.208 398.810 L 400.000 398.833 400.000 358.083 C 400.000 335.671,399.974 317.333,399.942 317.333 C 399.910 317.333,399.833 318.282,399.771 319.441 M240.833 326.838 C 252.715 327.304,258.911 328.632,261.276 331.219 C 263.354 333.493,264.527 337.929,264.776 344.458 L 264.886 347.333 256.967 347.333 L 249.048 347.333 248.953 346.125 C 248.552 341.056,246.432 340.250,233.500 340.250 C 222.784 340.250,220.408 340.706,219.263 342.980 C 217.257 346.963,217.637 362.151,219.801 364.465 C 221.262 366.028,228.540 366.793,237.860 366.363 C 247.246 365.931,248.522 365.222,249.097 360.125 L 249.205 359.167 257.019 359.167 L 264.833 359.167 264.833 360.726 C 264.833 369.642,262.950 375.097,259.247 376.902 C 251.407 380.725,218.451 380.954,209.360 377.249 C 204.606 375.312,202.874 370.492,202.308 357.620 C 201.724 344.369,203.367 334.030,206.526 331.075 C 210.124 327.710,222.884 326.134,240.833 326.838 M95.667 327.167 C 101.366 327.562,103.624 328.267,105.925 330.370 C 108.747 332.949,110.500 338.041,110.500 343.660 L 110.500 344.833 102.693 344.833 L 94.885 344.833 94.714 343.425 C 94.395 340.793,93.727 340.010,91.500 339.662 C 88.245 339.155,69.147 339.301,67.961 339.843 C 66.709 340.415,66.284 343.136,67.228 344.536 C 68.452 346.352,70.044 346.618,80.998 346.832 C 106.516 347.332,110.650 349.370,111.496 361.871 C 112.147 371.496,109.351 376.722,102.648 378.408 C 96.055 380.066,69.058 380.607,61.207 379.238 C 53.393 377.875,50.333 373.491,50.333 363.658 L 50.333 361.667 58.167 361.667 L 66.000 361.667 66.000 362.425 C 66.000 365.132,66.954 366.648,68.867 366.980 C 72.944 367.687,92.850 367.652,94.567 366.934 C 96.350 366.189,96.243 362.421,94.402 361.124 C 93.097 360.204,89.302 359.840,80.917 359.831 C 66.545 359.816,58.372 358.705,55.243 356.343 C 50.875 353.045,49.461 340.364,52.736 333.860 C 55.681 328.014,61.301 326.764,83.917 326.923 C 88.958 326.959,94.246 327.069,95.667 327.167 M141.954 333.209 C 143.533 336.348,147.854 344.879,151.558 352.167 L 158.292 365.417 159.035 365.466 L 159.779 365.516 163.002 359.133 C 164.774 355.622,166.347 352.525,166.498 352.250 C 166.649 351.975,169.537 346.294,172.916 339.625 L 179.060 327.500 187.947 327.500 L 196.834 327.500 183.916 353.334 L 170.999 379.169 159.053 379.126 L 147.108 379.083 144.197 373.250 C 142.596 370.042,136.797 358.435,131.311 347.458 L 121.336 327.500 130.210 327.501 L 139.083 327.502 141.954 333.209 M334.939 349.167 C 340.758 361.037,346.447 372.644,347.581 374.958 L 349.643 379.167 340.446 379.166 L 331.250 379.166 328.833 374.836 L 326.417 370.505 310.806 370.503 L 295.196 370.500 292.937 374.544 C 291.695 376.768,290.582 378.718,290.464 378.879 C 290.264 379.151,289.651 379.168,281.123 379.127 L 271.997 379.083 284.344 353.917 C 291.135 340.075,296.807 328.468,296.948 328.124 L 297.204 327.498 310.781 327.541 L 324.358 327.583 334.939 349.167 M0.024 364.125 L 0.000 398.833 34.625 398.810 C 53.669 398.797,68.500 398.727,67.583 398.654 C 31.450 395.780,2.868 367.164,0.178 331.167 C 0.106 330.204,0.037 345.035,0.024 364.125 M305.417 347.935 C 303.125 352.765,301.225 356.780,301.194 356.858 C 301.164 356.936,305.458 357.000,310.736 357.000 C 316.015 357.000,320.328 356.944,320.322 356.875 C 320.316 356.806,318.455 352.813,316.187 348.000 L 312.063 339.250 310.823 339.203 L 309.583 339.155 305.417 347.935 " stroke="none" fill="#fafafa" fill-rule="evenodd"></path><path id="path4" d="M84.720 75.667 C 84.720 76.262,84.750 76.506,84.787 76.208 C 84.824 75.910,84.824 75.423,84.787 75.125 C 84.750 74.827,84.720 75.071,84.720 75.667 M172.508 95.341 C 169.392 99.278,166.353 105.821,164.814 111.908 C 160.014 130.886,161.167 151.226,168.778 181.833 C 172.449 196.597,177.142 208.595,183.038 218.291 C 186.865 224.585,189.228 227.488,195.314 233.378 L 196.878 234.891 196.854 266.821 C 196.840 284.382,196.846 299.125,196.867 299.583 C 196.916 300.660,196.796 304.354,196.703 304.625 C 196.656 304.760,196.270 304.837,195.607 304.843 C 194.204 304.856,193.083 305.072,193.667 305.217 C 195.798 305.746,197.474 305.880,198.555 305.609 C 199.158 305.457,199.936 305.328,200.284 305.322 C 201.296 305.303,200.437 305.026,199.324 305.012 C 197.509 304.989,197.700 308.940,197.583 269.000 C 197.530 250.987,197.465 236.041,197.438 235.785 C 197.376 235.194,197.406 235.207,199.536 236.632 C 205.274 240.472,211.891 243.300,214.370 242.972 L 214.785 242.917 213.478 239.383 C 210.257 230.681,209.268 224.182,209.256 211.667 C 209.248 202.636,209.682 198.289,211.188 192.289 C 213.061 184.827,218.114 173.016,223.003 164.667 C 230.405 152.029,233.500 141.967,233.500 130.547 C 233.500 125.104,232.074 117.267,231.766 121.016 C 230.373 137.950,221.017 152.485,208.167 157.675 C 189.851 165.071,173.322 153.706,169.010 130.750 C 167.173 120.973,168.171 110.811,172.190 98.346 C 173.490 94.314,173.516 94.068,172.508 95.341 M184.379 106.000 C 184.379 106.412,184.411 106.581,184.451 106.375 C 184.491 106.169,184.491 105.831,184.451 105.625 C 184.411 105.419,184.379 105.587,184.379 106.000 M193.917 112.674 C 181.287 114.634,174.397 128.400,180.383 139.712 C 188.839 155.693,212.730 150.879,214.534 132.831 C 215.725 120.916,205.462 110.882,193.917 112.674 M90.603 129.859 C 97.731 137.256,99.823 139.691,101.938 143.048 C 111.138 157.649,108.751 175.062,96.872 180.008 C 85.391 184.787,71.971 178.368,64.009 164.289 C 62.700 161.974,62.579 161.863,62.383 162.792 C 61.415 167.368,66.640 177.999,73.165 184.729 C 75.632 187.273,77.506 188.772,81.693 191.546 C 93.828 199.587,100.697 206.812,105.494 216.583 C 110.113 225.990,112.000 232.376,112.000 238.599 L 112.000 240.854 112.837 240.399 C 117.899 237.643,123.620 228.641,125.398 220.631 C 130.272 198.677,120.208 157.040,105.915 140.020 C 101.073 134.256,94.488 129.563,90.333 128.918 L 89.583 128.801 90.603 129.859 M86.983 147.907 C 77.946 149.792,73.188 159.936,77.408 168.317 C 82.270 177.971,97.361 177.911,102.228 168.218 C 104.104 164.482,104.134 158.993,102.299 155.230 C 99.681 149.862,92.976 146.656,86.983 147.907 M285.927 221.650 C 285.876 221.732,286.233 222.356,286.721 223.035 C 287.208 223.714,287.657 224.378,287.717 224.510 C 287.778 224.642,288.239 225.313,288.741 226.000 C 289.243 226.688,290.139 227.963,290.733 228.833 C 292.100 230.840,295.147 235.208,295.790 236.083 C 296.059 236.450,296.617 237.237,297.028 237.833 C 297.440 238.429,298.928 240.567,300.335 242.583 C 301.742 244.600,303.329 246.887,303.862 247.667 C 304.394 248.446,305.068 249.421,305.358 249.833 C 307.577 252.986,308.497 254.299,311.372 258.417 C 313.164 260.983,314.995 263.617,315.440 264.269 C 317.345 267.059,319.256 269.771,319.508 270.044 C 320.838 271.484,320.282 271.561,316.167 270.503 C 315.846 270.421,315.096 270.269,314.500 270.166 C 313.904 270.062,313.117 269.908,312.750 269.823 C 311.755 269.591,308.951 269.145,305.000 268.590 C 303.946 268.442,302.596 268.242,302.000 268.146 C 300.770 267.948,299.169 267.798,292.564 267.261 C 282.840 266.471,272.566 266.583,263.417 267.581 C 258.614 268.105,253.756 268.841,250.417 269.551 C 249.775 269.688,248.688 269.919,248.000 270.066 C 244.168 270.883,236.244 273.237,233.083 274.497 C 231.869 274.981,229.980 275.759,229.417 276.006 C 229.050 276.168,228.112 276.580,227.333 276.923 C 225.974 277.522,222.042 279.487,220.840 280.169 C 220.523 280.348,220.194 280.519,220.110 280.547 C 219.924 280.609,220.373 281.521,220.739 281.824 C 220.883 281.943,221.000 282.177,221.000 282.343 C 221.000 282.508,221.139 282.688,221.308 282.742 C 221.477 282.796,221.698 283.020,221.798 283.240 C 221.980 283.637,222.463 283.673,222.918 283.322 C 223.010 283.251,223.385 283.084,223.751 282.950 C 224.117 282.817,225.542 282.261,226.917 281.714 C 228.292 281.168,229.829 280.593,230.333 280.437 C 230.838 280.281,231.400 280.087,231.583 280.006 C 232.690 279.515,241.239 277.067,244.750 276.236 C 247.418 275.605,249.248 275.235,252.917 274.585 C 256.812 273.894,261.691 273.194,262.917 273.150 C 263.192 273.140,263.754 273.066,264.167 272.986 C 268.935 272.053,288.289 271.768,296.917 272.503 C 297.925 272.589,299.575 272.701,300.583 272.752 C 301.592 272.803,302.679 272.891,303.000 272.947 C 303.321 273.004,303.881 273.069,304.245 273.093 C 305.420 273.169,307.016 273.351,310.250 273.776 C 311.992 274.006,314.017 274.261,314.750 274.343 C 315.483 274.426,316.571 274.575,317.167 274.674 C 317.762 274.774,318.925 274.960,319.750 275.086 C 320.575 275.213,321.438 275.357,321.667 275.406 C 322.752 275.638,325.222 276.000,325.286 275.936 C 325.368 275.854,325.000 275.320,321.774 270.833 C 320.489 269.046,318.853 266.758,318.140 265.750 C 317.426 264.742,315.944 262.679,314.847 261.167 C 313.749 259.654,312.603 258.058,312.300 257.620 C 311.998 257.182,311.672 256.732,311.576 256.620 C 311.422 256.440,307.471 250.960,306.082 249.000 C 305.598 248.317,303.987 246.064,303.401 245.250 C 303.269 245.067,302.565 244.092,301.838 243.083 C 301.110 242.075,300.139 240.725,299.680 240.083 C 296.584 235.751,294.247 232.505,293.912 232.073 C 293.582 231.646,292.561 230.220,291.833 229.169 C 291.512 228.705,290.737 227.633,290.109 226.788 C 289.482 225.942,288.889 225.100,288.793 224.917 C 288.696 224.733,288.568 224.546,288.508 224.500 C 288.448 224.454,287.926 223.760,287.347 222.958 C 286.317 221.532,286.115 221.345,285.927 221.650 M290.833 246.940 C 279.605 247.579,267.429 250.172,257.083 254.128 C 255.740 254.642,251.967 256.162,251.333 256.445 C 249.096 257.444,248.297 257.821,246.000 258.961 C 244.579 259.666,242.554 260.722,241.500 261.308 C 240.446 261.894,239.096 262.637,238.500 262.960 C 237.904 263.283,237.298 263.649,237.154 263.774 C 237.009 263.898,236.836 264.000,236.770 264.000 C 236.026 264.000,225.394 271.572,220.750 275.410 C 219.742 276.243,218.700 277.091,218.436 277.296 C 218.115 277.543,218.043 277.667,218.219 277.667 C 218.365 277.667,218.552 277.788,218.635 277.937 C 218.764 278.167,219.103 278.000,220.935 276.803 C 222.116 276.030,223.571 275.106,224.167 274.749 C 224.762 274.392,225.362 274.010,225.500 273.900 C 225.637 273.790,226.162 273.478,226.667 273.206 C 227.641 272.681,228.387 272.259,229.333 271.701 C 233.055 269.503,241.812 265.342,246.250 263.663 C 247.258 263.282,248.308 262.872,248.583 262.753 C 248.858 262.634,249.271 262.484,249.500 262.420 C 249.729 262.355,250.479 262.092,251.167 261.833 C 253.320 261.025,259.185 259.278,261.750 258.681 C 262.117 258.596,262.904 258.408,263.500 258.264 C 265.293 257.831,267.698 257.312,268.583 257.167 C 269.042 257.092,270.617 256.831,272.083 256.588 C 275.609 256.003,277.244 255.826,283.583 255.345 C 288.133 255.000,295.251 255.137,301.250 255.685 C 304.813 256.010,305.167 256.031,305.167 255.916 C 305.167 255.853,304.665 255.153,304.052 254.359 C 303.438 253.566,302.598 252.467,302.183 251.917 C 301.769 251.367,301.386 250.879,301.333 250.833 C 301.162 250.685,298.677 247.490,298.533 247.232 C 298.390 246.976,293.479 246.790,290.833 246.940 M197.287 254.039 C 197.250 254.338,197.219 254.133,197.218 253.583 C 197.217 253.033,197.248 252.788,197.286 253.039 C 197.324 253.289,197.325 253.739,197.287 254.039 M197.292 274.792 C 197.266 278.160,197.246 275.404,197.246 268.667 C 197.246 261.929,197.266 259.173,197.292 262.542 C 197.317 265.910,197.317 271.423,197.292 274.792 M101.833 266.334 C 96.136 266.552,87.544 267.258,85.500 267.676 C 85.087 267.760,84.188 267.875,83.500 267.930 C 82.813 267.985,81.337 268.193,80.220 268.390 L 78.191 268.750 75.998 272.064 C 73.482 275.868,73.448 275.931,74.014 275.778 C 74.235 275.719,75.054 275.516,75.833 275.329 C 76.612 275.141,77.625 274.882,78.083 274.754 C 78.542 274.626,79.292 274.474,79.750 274.416 C 80.208 274.358,80.733 274.245,80.917 274.165 C 81.202 274.041,82.660 273.749,86.750 272.996 C 88.253 272.720,91.401 272.193,92.167 272.090 C 92.579 272.035,93.367 271.915,93.917 271.824 C 94.828 271.673,97.120 271.425,99.250 271.247 C 99.708 271.209,101.396 271.056,103.000 270.908 C 108.969 270.358,119.982 270.401,126.417 271.000 C 127.333 271.086,128.538 271.192,129.093 271.237 C 129.648 271.282,130.210 271.356,130.343 271.402 C 130.475 271.448,131.071 271.522,131.667 271.567 C 133.675 271.719,141.033 272.929,143.417 273.500 C 143.783 273.587,144.946 273.850,146.000 274.084 C 147.054 274.318,148.404 274.650,149.000 274.823 C 149.596 274.995,151.096 275.414,152.333 275.753 C 154.449 276.333,160.185 278.164,160.917 278.492 C 161.100 278.574,162.075 278.954,163.083 279.336 C 164.092 279.718,165.329 280.204,165.833 280.415 C 166.337 280.626,167.162 280.966,167.667 281.171 C 168.171 281.376,169.204 281.834,169.962 282.188 C 170.720 282.543,171.383 282.833,171.435 282.833 C 171.840 282.833,180.365 287.358,183.163 289.058 C 187.307 291.576,194.549 296.685,195.268 297.598 C 195.370 297.728,195.508 297.833,195.574 297.833 C 195.966 297.833,191.617 293.284,189.333 291.305 C 185.918 288.345,182.586 285.797,179.667 283.916 C 178.704 283.296,177.617 282.595,177.250 282.359 C 176.883 282.123,176.358 281.809,176.083 281.662 C 175.600 281.402,175.261 281.208,173.667 280.275 C 168.420 277.204,158.515 273.245,151.083 271.247 C 150.533 271.099,149.671 270.864,149.167 270.723 C 148.662 270.583,147.575 270.318,146.750 270.134 C 145.925 269.951,144.800 269.696,144.250 269.567 C 141.943 269.029,137.909 268.293,135.167 267.911 C 134.204 267.777,133.154 267.630,132.833 267.585 C 129.962 267.180,126.188 266.795,124.333 266.717 C 123.096 266.665,122.004 266.560,121.907 266.484 C 121.668 266.296,105.900 266.179,101.833 266.334 M214.481 280.868 C 214.373 281.071,214.127 281.372,213.934 281.539 C 213.594 281.832,213.601 281.832,214.167 281.555 C 214.582 281.351,214.750 281.158,214.750 280.884 C 214.750 280.409,214.728 280.408,214.481 280.868 M213.667 284.587 C 210.720 286.676,208.543 288.300,207.833 288.937 C 207.604 289.143,206.592 290.041,205.583 290.933 C 202.421 293.729,199.659 296.548,199.873 296.762 C 199.947 296.836,201.624 295.609,201.833 295.327 C 201.999 295.104,206.643 291.833,206.794 291.833 C 206.879 291.833,207.084 291.683,207.250 291.500 C 207.416 291.317,207.605 291.167,207.671 291.167 C 207.737 291.167,208.594 290.679,209.577 290.083 C 210.560 289.487,211.396 289.000,211.435 289.000 C 211.474 289.000,211.790 288.821,212.137 288.602 C 212.484 288.383,213.814 287.666,215.092 287.008 C 216.371 286.351,217.471 285.760,217.537 285.694 C 217.655 285.579,215.724 283.327,215.519 283.340 C 215.463 283.343,214.629 283.904,213.667 284.587 M197.287 286.375 C 197.250 286.673,197.220 286.429,197.220 285.833 C 197.220 285.237,197.250 284.994,197.287 285.292 C 197.324 285.590,197.324 286.077,197.287 286.375 M197.291 294.042 C 197.262 295.165,197.239 294.246,197.239 292.000 C 197.239 289.754,197.262 288.835,197.291 289.958 C 197.320 291.081,197.320 292.919,197.291 294.042 M329.019 290.708 C 329.034 290.994,329.057 291.013,329.115 290.790 C 329.157 290.628,329.273 290.546,329.372 290.607 C 329.479 290.673,329.503 290.640,329.433 290.526 C 329.235 290.205,328.999 290.310,329.019 290.708 M64.850 290.875 C 64.624 291.242,64.627 291.244,64.954 290.953 C 65.281 290.662,65.290 290.670,65.392 291.286 C 65.856 294.111,65.863 301.849,65.403 303.917 C 65.319 304.293,65.339 304.372,65.486 304.235 C 65.793 303.948,66.264 296.080,65.984 295.907 C 65.895 295.852,65.614 292.054,65.640 291.258 C 65.664 290.550,65.190 290.321,64.850 290.875 M63.722 292.625 C 63.565 292.877,63.357 293.191,63.260 293.324 C 63.131 293.499,63.136 293.533,63.275 293.449 C 63.477 293.328,64.208 292.167,64.082 292.167 C 64.041 292.167,63.879 292.373,63.722 292.625 M328.611 294.111 C 328.459 294.263,328.475 302.202,328.628 302.443 C 328.695 302.549,328.750 300.693,328.750 298.318 C 328.750 295.943,328.744 294.000,328.736 294.000 C 328.728 294.000,328.672 294.050,328.611 294.111 M197.497 298.125 C 197.494 298.512,197.234 298.910,197.112 298.713 C 196.984 298.505,197.167 297.833,197.353 297.833 C 197.434 297.833,197.499 297.965,197.497 298.125 M59.211 299.708 C 58.332 301.114,58.302 301.167,58.393 301.167 C 58.436 301.167,58.714 300.773,59.009 300.292 C 59.305 299.810,59.658 299.248,59.793 299.042 C 59.928 298.835,59.999 298.667,59.951 298.667 C 59.903 298.667,59.570 299.135,59.211 299.708 M244.083 300.853 C 242.617 300.928,241.117 301.021,240.750 301.060 C 240.082 301.132,242.814 301.056,248.750 300.838 L 251.917 300.722 249.333 300.719 C 247.912 300.717,245.550 300.778,244.083 300.853 M269.208 300.791 C 269.919 300.822,271.081 300.822,271.792 300.791 C 272.502 300.759,271.921 300.734,270.500 300.734 C 269.079 300.734,268.498 300.759,269.208 300.791 M273.181 300.896 C 273.219 300.930,274.712 300.996,276.500 301.043 C 278.684 301.100,279.203 301.086,278.083 301.000 C 276.285 300.862,273.067 300.794,273.181 300.896 M237.963 301.289 C 238.355 301.324,238.955 301.324,239.296 301.288 C 239.637 301.252,239.317 301.223,238.583 301.224 C 237.850 301.224,237.571 301.254,237.963 301.289 M280.542 301.288 C 280.885 301.324,281.448 301.324,281.792 301.288 C 282.135 301.252,281.854 301.223,281.167 301.223 C 280.479 301.223,280.198 301.252,280.542 301.288 M284.370 301.425 C 284.424 301.480,285.132 301.556,285.943 301.594 C 286.753 301.632,287.792 301.698,288.250 301.740 C 288.864 301.796,288.965 301.779,288.633 301.674 C 288.100 301.507,284.225 301.281,284.370 301.425 M134.417 301.686 C 132.308 301.760,130.283 301.854,129.917 301.894 C 129.550 301.935,130.675 301.927,132.417 301.877 C 134.158 301.827,139.446 301.736,144.167 301.674 L 152.750 301.561 145.500 301.556 C 141.512 301.554,136.525 301.612,134.417 301.686 M233.121 301.620 C 233.417 301.657,233.942 301.658,234.288 301.622 C 234.634 301.586,234.392 301.555,233.750 301.555 C 233.108 301.554,232.825 301.583,233.121 301.620 M153.463 301.789 C 153.855 301.824,154.455 301.824,154.796 301.788 C 155.137 301.752,154.817 301.723,154.083 301.724 C 153.350 301.724,153.071 301.754,153.463 301.789 M159.048 301.957 C 159.578 301.990,160.403 301.990,160.881 301.956 C 161.359 301.922,160.925 301.895,159.917 301.896 C 158.908 301.896,158.517 301.924,159.048 301.957 M292.083 302.092 C 293.183 302.211,294.346 302.304,294.667 302.298 C 294.987 302.292,294.462 302.192,293.500 302.076 C 292.537 301.960,291.375 301.867,290.917 301.870 C 290.458 301.873,290.983 301.973,292.083 302.092 M126.797 302.123 C 127.282 302.157,128.032 302.156,128.464 302.122 C 128.896 302.088,128.500 302.060,127.583 302.061 C 126.667 302.061,126.313 302.089,126.797 302.123 M163.417 302.175 C 164.333 302.240,165.571 302.291,166.167 302.287 C 167.152 302.281,167.114 302.269,165.750 302.158 C 164.925 302.090,163.688 302.040,163.000 302.045 C 161.791 302.055,161.804 302.059,163.417 302.175 M123.875 302.288 C 124.219 302.324,124.781 302.324,125.125 302.288 C 125.469 302.252,125.188 302.223,124.500 302.223 C 123.813 302.223,123.531 302.252,123.875 302.288 M121.292 302.451 C 121.498 302.491,121.835 302.491,122.042 302.451 C 122.248 302.411,122.079 302.379,121.667 302.379 C 121.254 302.379,121.085 302.411,121.292 302.451 M223.044 302.453 C 223.297 302.491,223.672 302.490,223.877 302.451 C 224.082 302.411,223.875 302.380,223.417 302.381 C 222.958 302.382,222.791 302.415,223.044 302.453 M295.625 302.451 C 295.831 302.491,296.169 302.491,296.375 302.451 C 296.581 302.411,296.412 302.379,296.000 302.379 C 295.587 302.379,295.419 302.411,295.625 302.451 M116.333 302.667 C 115.418 302.779,115.419 302.779,116.667 302.792 C 117.354 302.798,118.292 302.746,118.750 302.674 C 119.876 302.499,117.756 302.492,116.333 302.667 M220.417 302.667 C 219.617 302.776,219.610 302.782,220.250 302.795 C 220.617 302.802,221.254 302.749,221.667 302.675 C 222.654 302.499,221.684 302.493,220.417 302.667 M297.338 302.551 C 297.386 302.604,297.986 302.693,298.671 302.747 C 299.356 302.802,300.104 302.882,300.333 302.925 C 300.665 302.988,300.694 302.970,300.478 302.838 C 300.187 302.661,297.189 302.387,297.338 302.551 M110.333 303.224 C 109.462 303.321,108.900 303.423,109.083 303.452 C 109.267 303.480,110.354 303.400,111.500 303.273 C 112.646 303.145,113.208 303.043,112.750 303.045 C 112.292 303.046,111.204 303.127,110.333 303.224 M303.083 303.257 C 303.817 303.377,304.679 303.472,305.000 303.468 C 305.321 303.465,304.946 303.364,304.167 303.245 C 303.387 303.126,302.525 303.032,302.250 303.035 C 301.975 303.037,302.350 303.138,303.083 303.257 M337.750 303.833 C 337.892 304.108,338.046 304.333,338.092 304.333 C 338.138 304.333,338.059 304.108,337.917 303.833 C 337.774 303.558,337.621 303.333,337.575 303.333 C 337.529 303.333,337.608 303.558,337.750 303.833 M107.627 303.618 C 107.834 303.658,108.134 303.656,108.294 303.615 C 108.453 303.573,108.283 303.540,107.917 303.542 C 107.550 303.544,107.420 303.578,107.627 303.618 M181.375 303.615 C 181.535 303.657,181.798 303.657,181.958 303.615 C 182.119 303.573,181.987 303.539,181.667 303.539 C 181.346 303.539,181.215 303.573,181.375 303.615 M212.542 303.615 C 212.702 303.657,212.965 303.657,213.125 303.615 C 213.285 303.573,213.154 303.539,212.833 303.539 C 212.512 303.539,212.381 303.573,212.542 303.615 M305.667 303.550 C 305.667 303.595,306.323 303.717,307.125 303.820 C 309.761 304.161,309.929 304.174,309.667 304.018 C 309.529 303.937,308.929 303.822,308.333 303.763 C 307.737 303.704,306.894 303.613,306.458 303.562 C 306.023 303.511,305.667 303.506,305.667 303.550 M104.167 303.790 C 102.928 303.897,103.091 304.088,104.369 304.027 C 105.151 303.990,105.475 303.920,105.319 303.821 C 105.190 303.739,105.046 303.684,105.000 303.698 C 104.954 303.713,104.579 303.754,104.167 303.790 M183.000 303.842 C 183.412 303.915,183.975 303.971,184.250 303.967 C 184.619 303.961,184.553 303.923,184.000 303.825 C 183.588 303.751,183.025 303.695,182.750 303.700 C 182.381 303.706,182.447 303.743,183.000 303.842 M211.294 303.785 C 211.501 303.824,211.801 303.823,211.960 303.781 C 212.120 303.739,211.950 303.707,211.583 303.709 C 211.217 303.711,211.086 303.745,211.294 303.785 M328.505 304.077 C 328.295 304.330,328.300 304.385,328.549 304.524 C 328.730 304.626,328.826 304.874,328.815 305.216 C 328.806 305.510,328.853 306.174,328.921 306.692 C 329.030 307.532,329.009 307.643,328.730 307.714 C 328.478 307.779,328.493 307.798,328.809 307.814 C 329.202 307.833,329.202 307.833,329.085 306.360 C 328.910 304.140,328.803 303.719,328.505 304.077 M100.025 304.346 C 99.443 304.422,98.880 304.521,98.775 304.567 C 98.536 304.670,100.653 304.496,101.667 304.329 L 102.417 304.206 101.750 304.207 C 101.383 304.208,100.607 304.271,100.025 304.346 M186.667 304.328 C 187.080 304.466,188.286 304.556,188.153 304.439 C 188.115 304.406,187.671 304.336,187.167 304.284 C 186.575 304.222,186.398 304.238,186.667 304.328 M311.583 304.434 C 312.317 304.559,312.992 304.636,313.083 304.606 C 313.309 304.533,311.159 304.161,310.653 304.187 C 310.431 304.198,310.850 304.309,311.583 304.434 M65.000 305.250 C 64.883 305.668,64.826 306.048,64.872 306.094 C 64.919 306.141,65.045 305.830,65.153 305.403 C 65.407 304.392,65.277 304.261,65.000 305.250 M97.627 304.785 C 97.834 304.824,98.134 304.823,98.294 304.781 C 98.453 304.739,98.283 304.707,97.917 304.709 C 97.550 304.711,97.420 304.745,97.627 304.785 M190.315 304.826 C 190.626 304.904,191.301 305.008,191.815 305.059 C 192.523 305.128,192.613 305.115,192.185 305.008 C 191.874 304.930,191.199 304.825,190.685 304.775 C 189.977 304.706,189.887 304.718,190.315 304.826 M314.500 304.920 C 315.096 305.047,315.733 305.148,315.917 305.145 C 316.512 305.133,315.487 304.888,314.409 304.785 L 313.417 304.689 314.500 304.920 M95.972 304.917 C 95.926 304.963,95.580 305.012,95.202 305.027 C 94.825 305.042,94.418 305.116,94.299 305.191 C 93.993 305.386,94.494 305.357,96.000 305.094 C 96.876 304.941,97.071 304.869,96.653 304.854 C 96.324 304.843,96.018 304.871,95.972 304.917 M202.875 304.948 C 203.035 304.990,203.298 304.990,203.458 304.948 C 203.619 304.906,203.487 304.872,203.167 304.872 C 202.846 304.872,202.715 304.906,202.875 304.948 M55.558 305.458 C 55.157 306.004,54.792 306.667,54.894 306.667 C 54.934 306.667,55.142 306.385,55.356 306.042 C 55.570 305.698,55.806 305.323,55.881 305.208 C 56.139 304.812,55.895 305.002,55.558 305.458 M92.542 305.448 C 92.702 305.490,92.965 305.490,93.125 305.448 C 93.285 305.406,93.154 305.372,92.833 305.372 C 92.513 305.372,92.381 305.406,92.542 305.448 M317.866 305.497 C 318.112 305.572,318.712 305.676,319.199 305.730 L 320.083 305.826 319.167 305.587 C 318.662 305.455,318.063 305.351,317.833 305.355 L 317.417 305.362 317.866 305.497 M90.917 305.667 L 90.583 305.810 90.917 305.802 C 91.100 305.797,91.475 305.737,91.750 305.667 L 92.250 305.539 91.750 305.531 C 91.475 305.527,91.100 305.588,90.917 305.667 M88.250 306.087 C 87.700 306.202,87.438 306.302,87.667 306.307 C 87.896 306.313,88.571 306.218,89.167 306.095 C 89.763 305.973,90.025 305.874,89.750 305.875 C 89.475 305.875,88.800 305.971,88.250 306.087 M321.333 306.167 C 321.563 306.240,321.938 306.300,322.167 306.300 L 322.583 306.300 322.167 306.167 C 321.938 306.093,321.563 306.033,321.333 306.033 L 320.917 306.033 321.333 306.167 M83.000 306.910 C 80.992 307.295,80.050 307.568,81.333 307.394 C 82.714 307.206,85.923 306.534,85.417 306.539 C 85.142 306.541,84.054 306.708,83.000 306.910 M324.250 306.754 C 325.339 307.034,325.940 307.028,325.083 306.745 C 324.717 306.624,324.192 306.529,323.917 306.533 C 323.523 306.538,323.594 306.585,324.250 306.754 M64.263 307.937 C 63.968 309.113,63.991 309.595,64.292 308.543 C 64.553 307.631,64.705 306.833,64.617 306.833 C 64.575 306.833,64.416 307.330,64.263 307.937 M326.583 307.251 C 327.519 307.523,327.874 307.560,327.500 307.347 C 327.362 307.268,326.912 307.160,326.500 307.106 L 325.750 307.008 326.583 307.251 M78.917 307.684 C 78.458 307.764,77.858 307.902,77.583 307.992 C 76.881 308.220,78.382 308.034,79.556 307.747 C 80.540 307.507,80.156 307.468,78.917 307.684 M75.250 308.412 C 74.376 308.700,74.822 308.704,76.083 308.420 C 76.878 308.241,76.963 308.194,76.500 308.193 C 76.179 308.193,75.617 308.291,75.250 308.412 M179.005 308.263 C 179.015 308.542,179.475 309.036,179.666 308.972 C 179.772 308.937,179.668 308.736,179.427 308.509 C 179.192 308.289,179.002 308.178,179.005 308.263 M53.269 309.083 C 53.121 309.313,52.879 309.706,52.730 309.958 L 52.460 310.417 52.796 310.011 C 53.192 309.532,53.717 308.667,53.612 308.667 C 53.571 308.667,53.417 308.854,53.269 309.083 M73.000 308.917 C 72.496 309.034,72.271 309.130,72.500 309.132 C 72.729 309.133,73.292 309.038,73.750 308.920 C 74.832 308.642,74.197 308.639,73.000 308.917 M63.671 310.150 C 63.561 310.609,63.515 311.057,63.570 311.145 C 63.662 311.294,65.958 310.760,66.167 310.542 C 66.269 310.435,65.676 310.552,64.630 310.846 C 63.668 311.116,63.595 311.053,63.833 310.167 C 63.937 309.781,63.988 309.432,63.946 309.391 C 63.905 309.349,63.781 309.691,63.671 310.150 M70.042 309.505 C 69.445 309.745,69.605 309.811,70.375 309.644 C 71.366 309.428,71.494 309.360,70.917 309.357 C 70.642 309.356,70.248 309.422,70.042 309.505 M180.663 309.992 C 181.126 310.347,181.833 310.535,181.833 310.302 C 181.833 310.136,180.810 309.664,180.464 309.670 C 180.346 309.672,180.436 309.817,180.663 309.992 M67.531 310.120 C 66.952 310.256,66.517 310.406,66.564 310.453 C 66.656 310.545,69.000 310.011,69.000 309.899 C 69.000 309.801,68.691 309.847,67.531 310.120 M51.897 311.208 C 51.323 312.182,51.286 312.265,51.578 311.917 C 51.916 311.513,52.208 311.000,52.099 311.000 C 52.055 311.000,51.964 311.094,51.897 311.208 M182.947 311.269 C 183.048 311.531,183.269 311.572,183.405 311.352 C 183.455 311.271,183.353 311.167,183.177 311.121 C 182.954 311.063,182.885 311.107,182.947 311.269 M176.042 311.619 C 176.294 311.658,176.706 311.658,176.958 311.619 C 177.210 311.581,177.004 311.550,176.500 311.550 C 175.996 311.550,175.790 311.581,176.042 311.619 M179.167 312.083 C 179.478 312.404,179.770 312.667,179.815 312.667 C 179.861 312.667,179.644 312.404,179.333 312.083 C 179.022 311.762,178.730 311.500,178.685 311.500 C 178.639 311.500,178.856 311.762,179.167 312.083 M214.768 312.251 C 213.738 313.028,213.413 313.316,213.833 313.079 C 214.209 312.867,215.833 311.636,215.833 311.563 C 215.833 311.453,215.770 311.494,214.768 312.251 M217.375 311.619 C 217.627 311.658,218.040 311.658,218.292 311.619 C 218.544 311.581,218.338 311.550,217.833 311.550 C 217.329 311.550,217.123 311.581,217.375 311.619 M172.917 311.833 L 171.917 311.944 172.750 311.954 C 173.208 311.959,174.033 311.908,174.583 311.840 L 175.583 311.716 174.750 311.719 C 174.292 311.721,173.467 311.772,172.917 311.833 M219.295 311.787 C 219.594 311.825,220.044 311.824,220.295 311.786 C 220.545 311.748,220.300 311.717,219.750 311.718 C 219.200 311.719,218.995 311.750,219.295 311.787 M221.042 311.948 C 221.202 311.990,221.465 311.990,221.625 311.948 C 221.785 311.906,221.654 311.872,221.333 311.872 C 221.012 311.872,220.881 311.906,221.042 311.948 M50.936 312.750 C 50.788 312.979,50.545 313.373,50.397 313.625 L 50.127 314.083 50.462 313.678 C 50.859 313.198,51.384 312.333,51.279 312.333 C 51.238 312.333,51.084 312.521,50.936 312.750 M227.875 312.448 C 228.035 312.490,228.298 312.490,228.458 312.448 C 228.619 312.406,228.487 312.372,228.167 312.372 C 227.846 312.372,227.715 312.406,227.875 312.448 M161.627 312.785 C 161.834 312.824,162.134 312.823,162.294 312.781 C 162.453 312.739,162.283 312.707,161.917 312.709 C 161.550 312.711,161.420 312.745,161.627 312.785 M232.208 312.786 C 232.460 312.824,232.873 312.824,233.125 312.786 C 233.377 312.748,233.171 312.717,232.667 312.717 C 232.162 312.717,231.956 312.748,232.208 312.786 M159.375 312.953 C 159.627 312.991,160.040 312.991,160.292 312.953 C 160.544 312.915,160.337 312.883,159.833 312.883 C 159.329 312.883,159.123 312.915,159.375 312.953 M234.295 312.954 C 234.594 312.991,235.044 312.990,235.295 312.952 C 235.545 312.914,235.300 312.884,234.750 312.885 C 234.200 312.886,233.995 312.917,234.295 312.954 M157.542 313.119 C 157.794 313.158,158.206 313.158,158.458 313.119 C 158.710 313.081,158.504 313.050,158.000 313.050 C 157.496 313.050,157.290 313.081,157.542 313.119 M236.208 313.119 C 236.460 313.158,236.873 313.158,237.125 313.119 C 237.377 313.081,237.171 313.050,236.667 313.050 C 236.162 313.050,235.956 313.081,236.208 313.119 M180.565 313.303 C 180.702 313.525,182.398 314.643,182.779 314.763 C 183.031 314.842,183.026 314.824,182.750 314.656 C 182.567 314.545,181.977 314.158,181.440 313.796 C 180.903 313.435,180.509 313.213,180.565 313.303 M238.042 313.286 C 238.294 313.324,238.706 313.324,238.958 313.286 C 239.210 313.248,239.004 313.217,238.500 313.217 C 237.996 313.217,237.790 313.248,238.042 313.286 M239.875 313.448 C 240.035 313.490,240.298 313.490,240.458 313.448 C 240.619 313.406,240.487 313.372,240.167 313.372 C 239.846 313.372,239.715 313.406,239.875 313.448 M151.542 313.619 C 151.794 313.658,152.206 313.658,152.458 313.619 C 152.710 313.581,152.504 313.550,152.000 313.550 C 151.496 313.550,151.290 313.581,151.542 313.619 M242.042 313.619 C 242.294 313.658,242.706 313.658,242.958 313.619 C 243.210 313.581,243.004 313.550,242.500 313.550 C 241.996 313.550,241.790 313.581,242.042 313.619 M146.375 313.953 C 146.627 313.991,147.040 313.991,147.292 313.953 C 147.544 313.915,147.337 313.883,146.833 313.883 C 146.329 313.883,146.123 313.915,146.375 313.953 M247.042 313.953 C 247.294 313.991,247.706 313.991,247.958 313.953 C 248.210 313.915,248.004 313.883,247.500 313.883 C 246.996 313.883,246.790 313.915,247.042 313.953 M144.542 314.119 C 144.794 314.158,145.206 314.158,145.458 314.119 C 145.710 314.081,145.504 314.050,145.000 314.050 C 144.496 314.050,144.290 314.081,144.542 314.119 M249.042 314.119 C 249.294 314.158,249.706 314.158,249.958 314.119 C 250.210 314.081,250.004 314.050,249.500 314.050 C 248.996 314.050,248.790 314.081,249.042 314.119 M49.897 314.375 C 49.323 315.348,49.286 315.431,49.578 315.083 C 49.916 314.680,50.208 314.167,50.099 314.167 C 50.055 314.167,49.964 314.260,49.897 314.375 M142.708 314.286 C 142.960 314.324,143.373 314.324,143.625 314.286 C 143.877 314.248,143.671 314.217,143.167 314.217 C 142.662 314.217,142.456 314.248,142.708 314.286 M251.044 314.286 C 251.297 314.325,251.672 314.324,251.877 314.284 C 252.082 314.244,251.875 314.213,251.417 314.214 C 250.958 314.216,250.791 314.248,251.044 314.286 M140.542 314.453 C 140.794 314.491,141.206 314.491,141.458 314.453 C 141.710 314.415,141.504 314.383,141.000 314.383 C 140.496 314.383,140.290 314.415,140.542 314.453 M252.875 314.453 C 253.127 314.491,253.540 314.491,253.792 314.453 C 254.044 314.415,253.838 314.383,253.333 314.383 C 252.829 314.383,252.623 314.415,252.875 314.453 M138.628 314.621 C 138.928 314.658,139.378 314.657,139.628 314.619 C 139.878 314.581,139.633 314.551,139.083 314.552 C 138.533 314.553,138.328 314.584,138.628 314.621 M254.875 314.619 C 255.127 314.658,255.540 314.658,255.792 314.619 C 256.044 314.581,255.838 314.550,255.333 314.550 C 254.829 314.550,254.623 314.581,254.875 314.619 M136.877 314.786 C 137.131 314.825,137.506 314.824,137.711 314.784 C 137.916 314.744,137.708 314.713,137.250 314.714 C 136.792 314.716,136.624 314.748,136.877 314.786 M256.795 314.787 C 257.094 314.825,257.544 314.824,257.795 314.786 C 258.045 314.748,257.800 314.717,257.250 314.718 C 256.700 314.719,256.495 314.750,256.795 314.787 M183.167 314.915 C 183.167 315.029,184.187 315.535,184.263 315.459 C 184.300 315.423,184.068 315.268,183.748 315.116 C 183.428 314.963,183.167 314.873,183.167 314.915 M129.708 315.286 C 129.960 315.324,130.373 315.324,130.625 315.286 C 130.877 315.248,130.671 315.217,130.167 315.217 C 129.662 315.217,129.456 315.248,129.708 315.286 M128.375 315.448 C 128.535 315.490,128.798 315.490,128.958 315.448 C 129.119 315.406,128.987 315.372,128.667 315.372 C 128.346 315.372,128.215 315.406,128.375 315.448 M48.782 316.125 C 48.185 317.085,48.141 317.167,48.226 317.167 C 48.269 317.167,48.535 316.792,48.817 316.333 C 49.100 315.875,49.294 315.500,49.251 315.500 C 49.207 315.500,48.996 315.781,48.782 316.125 M125.708 315.619 C 125.960 315.658,126.373 315.658,126.625 315.619 C 126.877 315.581,126.671 315.550,126.167 315.550 C 125.662 315.550,125.456 315.581,125.708 315.619 M267.795 315.621 C 268.094 315.658,268.544 315.657,268.795 315.619 C 269.045 315.581,268.800 315.551,268.250 315.552 C 267.700 315.553,267.495 315.584,267.795 315.621 M123.795 315.787 C 124.094 315.825,124.544 315.824,124.795 315.786 C 125.045 315.748,124.800 315.717,124.250 315.718 C 123.700 315.719,123.495 315.750,123.795 315.787 M269.795 315.787 C 270.094 315.825,270.544 315.824,270.795 315.786 C 271.045 315.748,270.800 315.717,270.250 315.718 C 269.700 315.719,269.495 315.750,269.795 315.787 M122.044 315.953 C 122.297 315.991,122.672 315.990,122.877 315.951 C 123.082 315.911,122.875 315.880,122.417 315.881 C 121.958 315.882,121.791 315.915,122.044 315.953 M271.708 315.953 C 271.960 315.991,272.373 315.991,272.625 315.953 C 272.877 315.915,272.671 315.883,272.167 315.883 C 271.662 315.883,271.456 315.915,271.708 315.953 M110.875 316.786 C 111.127 316.824,111.540 316.824,111.792 316.786 C 112.044 316.748,111.837 316.717,111.333 316.717 C 110.829 316.717,110.623 316.748,110.875 316.786 M282.628 316.787 C 282.928 316.825,283.378 316.824,283.628 316.786 C 283.878 316.748,283.633 316.717,283.083 316.718 C 282.533 316.719,282.328 316.750,282.628 316.787 M109.042 316.953 C 109.294 316.991,109.706 316.991,109.958 316.953 C 110.210 316.915,110.004 316.883,109.500 316.883 C 108.996 316.883,108.790 316.915,109.042 316.953 M188.500 317.000 C 189.070 317.183,189.508 317.183,189.083 317.000 C 188.900 316.921,188.600 316.859,188.417 316.862 C 188.149 316.866,188.165 316.893,188.500 317.000 M284.628 316.954 C 284.928 316.991,285.378 316.990,285.628 316.952 C 285.878 316.914,285.633 316.884,285.083 316.885 C 284.533 316.886,284.328 316.917,284.628 316.954 M107.208 317.119 C 107.460 317.158,107.873 317.158,108.125 317.119 C 108.377 317.081,108.171 317.050,107.667 317.050 C 107.162 317.050,106.956 317.081,107.208 317.119 M286.542 317.119 C 286.794 317.158,287.206 317.158,287.458 317.119 C 287.710 317.081,287.504 317.050,287.000 317.050 C 286.496 317.050,286.290 317.081,286.542 317.119 M288.544 317.286 C 288.797 317.325,289.172 317.324,289.377 317.284 C 289.582 317.244,289.375 317.213,288.917 317.214 C 288.458 317.216,288.291 317.248,288.544 317.286 M290.294 317.451 C 290.501 317.491,290.801 317.490,290.960 317.448 C 291.120 317.406,290.950 317.374,290.583 317.375 C 290.217 317.377,290.086 317.411,290.294 317.451 M101.042 317.615 C 101.202 317.657,101.465 317.657,101.625 317.615 C 101.785 317.573,101.654 317.539,101.333 317.539 C 101.013 317.539,100.881 317.573,101.042 317.615 M292.544 317.620 C 292.797 317.658,293.172 317.657,293.377 317.617 C 293.582 317.578,293.375 317.546,292.917 317.548 C 292.458 317.549,292.291 317.581,292.544 317.620 M96.211 317.953 C 96.464 317.991,96.839 317.990,97.044 317.951 C 97.249 317.911,97.042 317.880,96.583 317.881 C 96.125 317.882,95.957 317.915,96.211 317.953 M195.542 317.957 C 196.160 317.989,197.173 317.989,197.792 317.957 C 198.410 317.925,197.904 317.899,196.667 317.899 C 195.429 317.899,194.923 317.925,195.542 317.957 M297.461 317.954 C 297.761 317.991,298.211 317.990,298.461 317.952 C 298.712 317.914,298.467 317.884,297.917 317.885 C 297.367 317.886,297.162 317.917,297.461 317.954 M94.208 318.119 C 94.460 318.158,94.873 318.158,95.125 318.119 C 95.377 318.081,95.171 318.050,94.667 318.050 C 94.162 318.050,93.956 318.081,94.208 318.119 M299.461 318.121 C 299.761 318.158,300.211 318.157,300.461 318.119 C 300.712 318.081,300.467 318.051,299.917 318.052 C 299.367 318.053,299.162 318.084,299.461 318.121 M92.375 318.286 C 92.627 318.324,93.040 318.324,93.292 318.286 C 93.544 318.248,93.337 318.217,92.833 318.217 C 92.329 318.217,92.123 318.248,92.375 318.286 M301.377 318.286 C 301.631 318.325,302.006 318.324,302.211 318.284 C 302.416 318.244,302.208 318.213,301.750 318.214 C 301.292 318.216,301.124 318.248,301.377 318.286 M47.271 318.590 C 47.213 318.739,47.180 319.473,47.196 320.222 L 47.225 321.583 47.324 320.000 C 47.432 318.288,47.428 318.180,47.271 318.590 M90.208 318.453 C 90.460 318.491,90.873 318.491,91.125 318.453 C 91.377 318.415,91.171 318.383,90.667 318.383 C 90.162 318.383,89.956 318.415,90.208 318.453 M303.208 318.453 C 303.460 318.491,303.873 318.491,304.125 318.453 C 304.377 318.415,304.171 318.383,303.667 318.383 C 303.162 318.383,302.956 318.415,303.208 318.453 M88.295 318.621 C 88.594 318.658,89.044 318.657,89.295 318.619 C 89.545 318.581,89.300 318.551,88.750 318.552 C 88.200 318.553,87.995 318.584,88.295 318.621 M305.833 318.673 C 306.429 318.740,307.292 318.792,307.750 318.788 C 308.537 318.783,308.523 318.776,307.500 318.661 C 306.904 318.594,306.042 318.542,305.583 318.545 C 304.796 318.550,304.810 318.558,305.833 318.673 M86.375 318.786 C 86.627 318.824,87.040 318.824,87.292 318.786 C 87.544 318.748,87.337 318.717,86.833 318.717 C 86.329 318.717,86.123 318.748,86.375 318.786 M79.750 319.167 L 78.750 319.277 79.583 319.286 C 80.042 319.291,80.904 319.240,81.500 319.173 L 82.583 319.051 81.667 319.053 C 81.162 319.055,80.300 319.106,79.750 319.167 M312.295 319.121 C 312.594 319.158,313.044 319.157,313.295 319.119 C 313.545 319.081,313.300 319.051,312.750 319.052 C 312.200 319.053,311.995 319.084,312.295 319.121 M314.208 319.286 C 314.460 319.324,314.873 319.324,315.125 319.286 C 315.377 319.248,315.171 319.217,314.667 319.217 C 314.162 319.217,313.956 319.248,314.208 319.286 M316.125 319.451 C 316.331 319.491,316.669 319.491,316.875 319.451 C 317.081 319.411,316.912 319.379,316.500 319.379 C 316.087 319.379,315.919 319.411,316.125 319.451 M75.375 319.619 C 75.627 319.658,76.040 319.658,76.292 319.619 C 76.544 319.581,76.337 319.550,75.833 319.550 C 75.329 319.550,75.123 319.581,75.375 319.619 M318.128 319.621 C 318.428 319.658,318.878 319.657,319.128 319.619 C 319.378 319.581,319.133 319.551,318.583 319.552 C 318.033 319.553,317.828 319.584,318.128 319.621 M73.461 319.787 C 73.761 319.825,74.211 319.824,74.461 319.786 C 74.712 319.748,74.467 319.717,73.917 319.718 C 73.367 319.719,73.162 319.750,73.461 319.787 M320.042 319.786 C 320.294 319.824,320.706 319.824,320.958 319.786 C 321.210 319.748,321.004 319.717,320.500 319.717 C 319.996 319.717,319.790 319.748,320.042 319.786 M71.542 319.953 C 71.794 319.991,72.206 319.991,72.458 319.953 C 72.710 319.915,72.504 319.883,72.000 319.883 C 71.496 319.883,71.290 319.915,71.542 319.953 M322.042 319.953 C 322.294 319.991,322.706 319.991,322.958 319.953 C 323.210 319.915,323.004 319.883,322.500 319.883 C 321.996 319.883,321.790 319.915,322.042 319.953 M328.958 320.451 C 329.165 320.491,329.502 320.491,329.708 320.451 C 329.915 320.411,329.746 320.379,329.333 320.379 C 328.921 320.379,328.752 320.411,328.958 320.451 M60.542 320.786 C 60.794 320.824,61.206 320.824,61.458 320.786 C 61.710 320.748,61.504 320.717,61.000 320.717 C 60.496 320.717,60.290 320.748,60.542 320.786 M333.042 320.786 C 333.294 320.824,333.706 320.824,333.958 320.786 C 334.210 320.748,334.004 320.717,333.500 320.717 C 332.996 320.717,332.790 320.748,333.042 320.786 M58.628 320.954 C 58.928 320.991,59.378 320.990,59.628 320.952 C 59.878 320.914,59.633 320.884,59.083 320.885 C 58.533 320.886,58.328 320.917,58.628 320.954 M334.961 320.954 C 335.261 320.991,335.711 320.990,335.961 320.952 C 336.212 320.914,335.967 320.884,335.417 320.885 C 334.867 320.886,334.662 320.917,334.961 320.954 M56.708 321.119 C 56.960 321.158,57.373 321.158,57.625 321.119 C 57.877 321.081,57.671 321.050,57.167 321.050 C 56.663 321.050,56.456 321.081,56.708 321.119 M336.961 321.121 C 337.261 321.158,337.711 321.157,337.961 321.119 C 338.212 321.081,337.967 321.051,337.417 321.052 C 336.867 321.053,336.662 321.084,336.961 321.121 M237.375 326.782 C 237.535 326.823,237.798 326.823,237.958 326.782 C 238.119 326.740,237.987 326.705,237.667 326.705 C 237.346 326.705,237.215 326.740,237.375 326.782 M74.875 326.948 C 75.035 326.990,75.298 326.990,75.458 326.948 C 75.619 326.906,75.487 326.872,75.167 326.872 C 74.846 326.872,74.715 326.906,74.875 326.948 M87.625 326.951 C 87.831 326.991,88.169 326.991,88.375 326.951 C 88.581 326.911,88.412 326.879,88.000 326.879 C 87.587 326.879,87.419 326.911,87.625 326.951 M54.573 331.208 L 54.083 331.750 54.625 331.260 C 55.130 330.804,55.243 330.667,55.115 330.667 C 55.086 330.667,54.842 330.910,54.573 331.208 M232.465 340.124 C 233.041 340.156,233.941 340.156,234.465 340.123 C 234.988 340.090,234.517 340.063,233.417 340.064 C 232.317 340.064,231.888 340.091,232.465 340.124 M84.627 346.951 C 84.834 346.991,85.134 346.990,85.294 346.948 C 85.453 346.906,85.283 346.874,84.917 346.875 C 84.550 346.877,84.420 346.911,84.627 346.951 M202.217 351.000 C 202.217 351.504,202.248 351.710,202.286 351.458 C 202.324 351.206,202.324 350.794,202.286 350.542 C 202.248 350.290,202.217 350.496,202.217 351.000 M202.217 355.500 C 202.217 356.004,202.248 356.210,202.286 355.958 C 202.324 355.706,202.324 355.294,202.286 355.042 C 202.248 354.790,202.217 354.996,202.217 355.500 M305.970 357.125 C 308.658 357.151,313.008 357.151,315.637 357.125 C 318.266 357.099,316.067 357.078,310.750 357.078 C 305.433 357.078,303.282 357.099,305.970 357.125 M253.042 359.292 C 255.219 359.318,258.781 359.318,260.958 359.292 C 263.135 359.265,261.354 359.244,257.000 359.244 C 252.646 359.244,250.865 359.265,253.042 359.292 M75.042 359.782 C 75.202 359.823,75.465 359.823,75.625 359.782 C 75.785 359.740,75.654 359.705,75.333 359.705 C 75.012 359.705,74.881 359.740,75.042 359.782 M111.552 364.250 C 111.553 364.800,111.584 365.005,111.621 364.705 C 111.658 364.406,111.657 363.956,111.619 363.705 C 111.581 363.455,111.551 363.700,111.552 364.250 M74.460 367.451 C 74.668 367.491,74.968 367.490,75.127 367.448 C 75.286 367.406,75.117 367.374,74.750 367.375 C 74.383 367.377,74.253 367.411,74.460 367.451 M88.877 367.453 C 89.131 367.491,89.506 367.490,89.711 367.451 C 89.916 367.411,89.708 367.380,89.250 367.381 C 88.792 367.382,88.624 367.415,88.877 367.453 M21.333 377.417 C 21.644 377.738,21.936 378.000,21.982 378.000 C 22.028 378.000,21.811 377.738,21.500 377.417 C 21.189 377.096,20.897 376.833,20.851 376.833 C 20.805 376.833,21.022 377.096,21.333 377.417 M71.877 379.953 C 72.131 379.991,72.506 379.990,72.711 379.951 C 72.916 379.911,72.708 379.880,72.250 379.881 C 71.792 379.882,71.624 379.915,71.877 379.953 M86.708 379.948 C 86.869 379.990,87.131 379.990,87.292 379.948 C 87.452 379.906,87.321 379.872,87.000 379.872 C 86.679 379.872,86.548 379.906,86.708 379.948 " stroke="none" fill="#b0b21c" fill-rule="evenodd"></path></g></svg>